ISO-10303-21;
HEADER;
/* Generated by software containing ST-Developer
 * from STEP Tools, Inc. (www.steptools.com) 
 */
/* OPTION: using custom renumber hook */

FILE_DESCRIPTION(
/* description */ ('STEP AP242 Edition 2',
'CAx-IF Rec.Pracs.---Representation and Presentation of Product Manufa
cturing Information (PMI)---4.0---2014-10-13',
'CAx-IF Rec.Pracs.---3D Tessellated Geometry---0.4---2014-09-14','2;1',
'CAx-IF Rec.Pracs.---User Defined Attributes---1.5---2016-08-15'),
/* implementation_level */ '2;1');

FILE_NAME(
/* name */ '698c9b1d66aa843694ab7686',
/* time_stamp */ '2026-02-11T15:07:10Z',
/* author */ (''),
/* organization */ (''),
/* preprocessor_version */ 'ST-DEVELOPER v20',
/* originating_system */ 'ONSHAPE BY PTC INC, 1.210',
/* authorisation */ '  ');

FILE_SCHEMA (('AP242_MANAGED_MODEL_BASED_3D_ENGINEERING_MIM_LF { 1 0 10303 442 3 1 4 }'));
ENDSEC;

DATA;
#10=SHAPE_REPRESENTATION_RELATIONSHIP('','',#797,#11);
#11=ADVANCED_BREP_SHAPE_REPRESENTATION('',(#795),#1339);
#12=CYLINDRICAL_SURFACE('',#836,1.5);
#13=CYLINDRICAL_SURFACE('',#843,1.5);
#14=CYLINDRICAL_SURFACE('',#850,1.5);
#15=CYLINDRICAL_SURFACE('',#857,1.5);
#16=CYLINDRICAL_SURFACE('',#863,2.);
#17=CYLINDRICAL_SURFACE('',#864,2.);
#18=CYLINDRICAL_SURFACE('',#865,2.);
#19=CYLINDRICAL_SURFACE('',#866,2.);
#20=CYLINDRICAL_SURFACE('',#867,2.);
#21=CYLINDRICAL_SURFACE('',#868,2.);
#22=CYLINDRICAL_SURFACE('',#869,2.);
#23=CYLINDRICAL_SURFACE('',#870,2.);
#24=CYLINDRICAL_SURFACE('',#871,2.);
#25=CYLINDRICAL_SURFACE('',#872,2.);
#26=CYLINDRICAL_SURFACE('',#873,2.);
#27=CYLINDRICAL_SURFACE('',#874,2.);
#28=CYLINDRICAL_SURFACE('',#875,5.);
#29=CYLINDRICAL_SURFACE('',#876,5.);
#30=CYLINDRICAL_SURFACE('',#877,5.);
#31=CYLINDRICAL_SURFACE('',#878,5.);
#32=CIRCLE('',#807,2.);
#33=CIRCLE('',#808,2.);
#34=CIRCLE('',#809,2.);
#35=CIRCLE('',#810,2.);
#36=CIRCLE('',#811,5.);
#37=CIRCLE('',#812,5.);
#38=CIRCLE('',#813,5.);
#39=CIRCLE('',#814,5.);
#40=CIRCLE('',#816,2.);
#41=CIRCLE('',#817,2.);
#42=CIRCLE('',#818,2.);
#43=CIRCLE('',#819,2.);
#44=CIRCLE('',#820,2.);
#45=CIRCLE('',#821,2.);
#46=CIRCLE('',#822,2.);
#47=CIRCLE('',#823,2.);
#48=CIRCLE('',#824,5.);
#49=CIRCLE('',#825,5.);
#50=CIRCLE('',#826,5.);
#51=CIRCLE('',#827,5.);
#52=CIRCLE('',#828,1.5);
#53=CIRCLE('',#829,1.5);
#54=CIRCLE('',#830,1.5);
#55=CIRCLE('',#831,1.5);
#56=CIRCLE('',#837,1.5);
#57=CIRCLE('',#839,2.);
#58=CIRCLE('',#840,2.);
#59=CIRCLE('',#841,2.);
#60=CIRCLE('',#844,1.5);
#61=CIRCLE('',#846,2.);
#62=CIRCLE('',#847,2.);
#63=CIRCLE('',#848,2.);
#64=CIRCLE('',#851,1.5);
#65=CIRCLE('',#853,2.);
#66=CIRCLE('',#854,2.);
#67=CIRCLE('',#855,2.);
#68=CIRCLE('',#858,1.5);
#69=CIRCLE('',#860,2.);
#70=CIRCLE('',#861,2.);
#71=CIRCLE('',#862,2.);
#72=ORIENTED_EDGE('',*,*,#292,.T.);
#73=ORIENTED_EDGE('',*,*,#293,.T.);
#74=ORIENTED_EDGE('',*,*,#294,.T.);
#75=ORIENTED_EDGE('',*,*,#295,.T.);
#76=ORIENTED_EDGE('',*,*,#296,.T.);
#77=ORIENTED_EDGE('',*,*,#297,.T.);
#78=ORIENTED_EDGE('',*,*,#298,.F.);
#79=ORIENTED_EDGE('',*,*,#299,.T.);
#80=ORIENTED_EDGE('',*,*,#300,.T.);
#81=ORIENTED_EDGE('',*,*,#301,.T.);
#82=ORIENTED_EDGE('',*,*,#302,.T.);
#83=ORIENTED_EDGE('',*,*,#303,.T.);
#84=ORIENTED_EDGE('',*,*,#304,.F.);
#85=ORIENTED_EDGE('',*,*,#305,.T.);
#86=ORIENTED_EDGE('',*,*,#306,.T.);
#87=ORIENTED_EDGE('',*,*,#307,.T.);
#88=ORIENTED_EDGE('',*,*,#308,.T.);
#89=ORIENTED_EDGE('',*,*,#309,.T.);
#90=ORIENTED_EDGE('',*,*,#310,.F.);
#91=ORIENTED_EDGE('',*,*,#311,.T.);
#92=ORIENTED_EDGE('',*,*,#312,.F.);
#93=ORIENTED_EDGE('',*,*,#313,.T.);
#94=ORIENTED_EDGE('',*,*,#314,.T.);
#95=ORIENTED_EDGE('',*,*,#315,.T.);
#96=ORIENTED_EDGE('',*,*,#316,.F.);
#97=ORIENTED_EDGE('',*,*,#317,.T.);
#98=ORIENTED_EDGE('',*,*,#318,.F.);
#99=ORIENTED_EDGE('',*,*,#319,.T.);
#100=ORIENTED_EDGE('',*,*,#320,.T.);
#101=ORIENTED_EDGE('',*,*,#321,.T.);
#102=ORIENTED_EDGE('',*,*,#322,.F.);
#103=ORIENTED_EDGE('',*,*,#323,.T.);
#104=ORIENTED_EDGE('',*,*,#324,.F.);
#105=ORIENTED_EDGE('',*,*,#325,.T.);
#106=ORIENTED_EDGE('',*,*,#326,.F.);
#107=ORIENTED_EDGE('',*,*,#327,.T.);
#108=ORIENTED_EDGE('',*,*,#328,.F.);
#109=ORIENTED_EDGE('',*,*,#329,.T.);
#110=ORIENTED_EDGE('',*,*,#330,.T.);
#111=ORIENTED_EDGE('',*,*,#331,.T.);
#112=ORIENTED_EDGE('',*,*,#332,.T.);
#113=ORIENTED_EDGE('',*,*,#333,.T.);
#114=ORIENTED_EDGE('',*,*,#334,.F.);
#115=ORIENTED_EDGE('',*,*,#335,.T.);
#116=ORIENTED_EDGE('',*,*,#320,.F.);
#117=ORIENTED_EDGE('',*,*,#336,.T.);
#118=ORIENTED_EDGE('',*,*,#298,.T.);
#119=ORIENTED_EDGE('',*,*,#337,.T.);
#120=ORIENTED_EDGE('',*,*,#304,.T.);
#121=ORIENTED_EDGE('',*,*,#338,.T.);
#122=ORIENTED_EDGE('',*,*,#330,.F.);
#123=ORIENTED_EDGE('',*,*,#339,.T.);
#124=ORIENTED_EDGE('',*,*,#308,.F.);
#125=ORIENTED_EDGE('',*,*,#340,.T.);
#126=ORIENTED_EDGE('',*,*,#312,.T.);
#127=ORIENTED_EDGE('',*,*,#341,.T.);
#128=ORIENTED_EDGE('',*,*,#334,.T.);
#129=ORIENTED_EDGE('',*,*,#342,.T.);
#130=ORIENTED_EDGE('',*,*,#343,.T.);
#131=ORIENTED_EDGE('',*,*,#344,.F.);
#132=ORIENTED_EDGE('',*,*,#345,.F.);
#133=ORIENTED_EDGE('',*,*,#346,.T.);
#134=ORIENTED_EDGE('',*,*,#347,.F.);
#135=ORIENTED_EDGE('',*,*,#348,.T.);
#136=ORIENTED_EDGE('',*,*,#316,.T.);
#137=ORIENTED_EDGE('',*,*,#349,.T.);
#138=ORIENTED_EDGE('',*,*,#350,.F.);
#139=ORIENTED_EDGE('',*,*,#351,.T.);
#140=ORIENTED_EDGE('',*,*,#326,.T.);
#141=ORIENTED_EDGE('',*,*,#352,.T.);
#142=ORIENTED_EDGE('',*,*,#353,.T.);
#143=ORIENTED_EDGE('',*,*,#354,.T.);
#144=ORIENTED_EDGE('',*,*,#300,.F.);
#145=ORIENTED_EDGE('',*,*,#355,.T.);
#146=ORIENTED_EDGE('',*,*,#356,.F.);
#147=ORIENTED_EDGE('',*,*,#357,.T.);
#148=ORIENTED_EDGE('',*,*,#294,.F.);
#149=ORIENTED_EDGE('',*,*,#358,.T.);
#150=ORIENTED_EDGE('',*,*,#314,.F.);
#151=ORIENTED_EDGE('',*,*,#359,.T.);
#152=ORIENTED_EDGE('',*,*,#310,.T.);
#153=ORIENTED_EDGE('',*,*,#360,.T.);
#154=ORIENTED_EDGE('',*,*,#361,.T.);
#155=ORIENTED_EDGE('',*,*,#362,.T.);
#156=ORIENTED_EDGE('',*,*,#363,.F.);
#157=ORIENTED_EDGE('',*,*,#364,.T.);
#158=ORIENTED_EDGE('',*,*,#332,.F.);
#159=ORIENTED_EDGE('',*,*,#365,.T.);
#160=ORIENTED_EDGE('',*,*,#366,.T.);
#161=ORIENTED_EDGE('',*,*,#367,.T.);
#162=ORIENTED_EDGE('',*,*,#368,.T.);
#163=ORIENTED_EDGE('',*,*,#369,.T.);
#164=ORIENTED_EDGE('',*,*,#362,.F.);
#165=ORIENTED_EDGE('',*,*,#370,.F.);
#166=ORIENTED_EDGE('',*,*,#344,.T.);
#167=ORIENTED_EDGE('',*,*,#371,.T.);
#168=ORIENTED_EDGE('',*,*,#361,.F.);
#169=ORIENTED_EDGE('',*,*,#372,.T.);
#170=ORIENTED_EDGE('',*,*,#345,.T.);
#171=ORIENTED_EDGE('',*,*,#370,.T.);
#172=ORIENTED_EDGE('',*,*,#343,.F.);
#173=ORIENTED_EDGE('',*,*,#373,.T.);
#174=ORIENTED_EDGE('',*,*,#363,.T.);
#175=ORIENTED_EDGE('',*,*,#371,.F.);
#176=ORIENTED_EDGE('',*,*,#374,.T.);
#177=ORIENTED_EDGE('',*,*,#375,.T.);
#178=ORIENTED_EDGE('',*,*,#353,.F.);
#179=ORIENTED_EDGE('',*,*,#376,.T.);
#180=ORIENTED_EDGE('',*,*,#377,.T.);
#181=ORIENTED_EDGE('',*,*,#366,.F.);
#182=ORIENTED_EDGE('',*,*,#324,.T.);
#183=ORIENTED_EDGE('',*,*,#378,.T.);
#184=ORIENTED_EDGE('',*,*,#302,.F.);
#185=ORIENTED_EDGE('',*,*,#379,.T.);
#186=ORIENTED_EDGE('',*,*,#374,.F.);
#187=ORIENTED_EDGE('',*,*,#380,.T.);
#188=ORIENTED_EDGE('',*,*,#377,.F.);
#189=ORIENTED_EDGE('',*,*,#350,.T.);
#190=ORIENTED_EDGE('',*,*,#381,.T.);
#191=ORIENTED_EDGE('',*,*,#382,.F.);
#192=ORIENTED_EDGE('',*,*,#383,.T.);
#193=ORIENTED_EDGE('',*,*,#384,.T.);
#194=ORIENTED_EDGE('',*,*,#367,.F.);
#195=ORIENTED_EDGE('',*,*,#384,.F.);
#196=ORIENTED_EDGE('',*,*,#322,.T.);
#197=ORIENTED_EDGE('',*,*,#385,.T.);
#198=ORIENTED_EDGE('',*,*,#328,.T.);
#199=ORIENTED_EDGE('',*,*,#386,.T.);
#200=ORIENTED_EDGE('',*,*,#382,.T.);
#201=ORIENTED_EDGE('',*,*,#387,.T.);
#202=ORIENTED_EDGE('',*,*,#388,.F.);
#203=ORIENTED_EDGE('',*,*,#389,.T.);
#204=ORIENTED_EDGE('',*,*,#356,.T.);
#205=ORIENTED_EDGE('',*,*,#390,.T.);
#206=ORIENTED_EDGE('',*,*,#391,.T.);
#207=ORIENTED_EDGE('',*,*,#368,.F.);
#208=ORIENTED_EDGE('',*,*,#306,.F.);
#209=ORIENTED_EDGE('',*,*,#392,.T.);
#210=ORIENTED_EDGE('',*,*,#296,.F.);
#211=ORIENTED_EDGE('',*,*,#393,.T.);
#212=ORIENTED_EDGE('',*,*,#388,.T.);
#213=ORIENTED_EDGE('',*,*,#394,.T.);
#214=ORIENTED_EDGE('',*,*,#391,.F.);
#215=ORIENTED_EDGE('',*,*,#347,.T.);
#216=ORIENTED_EDGE('',*,*,#395,.T.);
#217=ORIENTED_EDGE('',*,*,#396,.F.);
#218=ORIENTED_EDGE('',*,*,#397,.T.);
#219=ORIENTED_EDGE('',*,*,#398,.T.);
#220=ORIENTED_EDGE('',*,*,#369,.F.);
#221=ORIENTED_EDGE('',*,*,#292,.F.);
#222=ORIENTED_EDGE('',*,*,#399,.T.);
#223=ORIENTED_EDGE('',*,*,#318,.T.);
#224=ORIENTED_EDGE('',*,*,#400,.T.);
#225=ORIENTED_EDGE('',*,*,#396,.T.);
#226=ORIENTED_EDGE('',*,*,#401,.T.);
#227=ORIENTED_EDGE('',*,*,#398,.F.);
#228=ORIENTED_EDGE('',*,*,#401,.F.);
#229=ORIENTED_EDGE('',*,*,#395,.F.);
#230=ORIENTED_EDGE('',*,*,#358,.F.);
#231=ORIENTED_EDGE('',*,*,#293,.F.);
#232=ORIENTED_EDGE('',*,*,#400,.F.);
#233=ORIENTED_EDGE('',*,*,#317,.F.);
#234=ORIENTED_EDGE('',*,*,#348,.F.);
#235=ORIENTED_EDGE('',*,*,#397,.F.);
#236=ORIENTED_EDGE('',*,*,#336,.F.);
#237=ORIENTED_EDGE('',*,*,#319,.F.);
#238=ORIENTED_EDGE('',*,*,#399,.F.);
#239=ORIENTED_EDGE('',*,*,#299,.F.);
#240=ORIENTED_EDGE('',*,*,#393,.F.);
#241=ORIENTED_EDGE('',*,*,#295,.F.);
#242=ORIENTED_EDGE('',*,*,#357,.F.);
#243=ORIENTED_EDGE('',*,*,#389,.F.);
#244=ORIENTED_EDGE('',*,*,#394,.F.);
#245=ORIENTED_EDGE('',*,*,#390,.F.);
#246=ORIENTED_EDGE('',*,*,#355,.F.);
#247=ORIENTED_EDGE('',*,*,#307,.F.);
#248=ORIENTED_EDGE('',*,*,#337,.F.);
#249=ORIENTED_EDGE('',*,*,#297,.F.);
#250=ORIENTED_EDGE('',*,*,#392,.F.);
#251=ORIENTED_EDGE('',*,*,#305,.F.);
#252=ORIENTED_EDGE('',*,*,#338,.F.);
#253=ORIENTED_EDGE('',*,*,#303,.F.);
#254=ORIENTED_EDGE('',*,*,#378,.F.);
#255=ORIENTED_EDGE('',*,*,#331,.F.);
#256=ORIENTED_EDGE('',*,*,#387,.F.);
#257=ORIENTED_EDGE('',*,*,#381,.F.);
#258=ORIENTED_EDGE('',*,*,#349,.F.);
#259=ORIENTED_EDGE('',*,*,#323,.F.);
#260=ORIENTED_EDGE('',*,*,#386,.F.);
#261=ORIENTED_EDGE('',*,*,#327,.F.);
#262=ORIENTED_EDGE('',*,*,#351,.F.);
#263=ORIENTED_EDGE('',*,*,#383,.F.);
#264=ORIENTED_EDGE('',*,*,#339,.F.);
#265=ORIENTED_EDGE('',*,*,#329,.F.);
#266=ORIENTED_EDGE('',*,*,#385,.F.);
#267=ORIENTED_EDGE('',*,*,#321,.F.);
#268=ORIENTED_EDGE('',*,*,#379,.F.);
#269=ORIENTED_EDGE('',*,*,#301,.F.);
#270=ORIENTED_EDGE('',*,*,#354,.F.);
#271=ORIENTED_EDGE('',*,*,#375,.F.);
#272=ORIENTED_EDGE('',*,*,#380,.F.);
#273=ORIENTED_EDGE('',*,*,#376,.F.);
#274=ORIENTED_EDGE('',*,*,#352,.F.);
#275=ORIENTED_EDGE('',*,*,#325,.F.);
#276=ORIENTED_EDGE('',*,*,#346,.F.);
#277=ORIENTED_EDGE('',*,*,#372,.F.);
#278=ORIENTED_EDGE('',*,*,#360,.F.);
#279=ORIENTED_EDGE('',*,*,#309,.F.);
#280=ORIENTED_EDGE('',*,*,#342,.F.);
#281=ORIENTED_EDGE('',*,*,#333,.F.);
#282=ORIENTED_EDGE('',*,*,#364,.F.);
#283=ORIENTED_EDGE('',*,*,#373,.F.);
#284=ORIENTED_EDGE('',*,*,#340,.F.);
#285=ORIENTED_EDGE('',*,*,#311,.F.);
#286=ORIENTED_EDGE('',*,*,#359,.F.);
#287=ORIENTED_EDGE('',*,*,#313,.F.);
#288=ORIENTED_EDGE('',*,*,#341,.F.);
#289=ORIENTED_EDGE('',*,*,#315,.F.);
#290=ORIENTED_EDGE('',*,*,#365,.F.);
#291=ORIENTED_EDGE('',*,*,#335,.F.);
#292=EDGE_CURVE('',#402,#403,#478,.T.);
#293=EDGE_CURVE('',#403,#404,#479,.T.);
#294=EDGE_CURVE('',#404,#405,#480,.T.);
#295=EDGE_CURVE('',#405,#406,#481,.F.);
#296=EDGE_CURVE('',#406,#407,#482,.T.);
#297=EDGE_CURVE('',#407,#408,#483,.F.);
#298=EDGE_CURVE('',#409,#408,#484,.T.);
#299=EDGE_CURVE('',#409,#402,#485,.T.);
#300=EDGE_CURVE('',#410,#411,#486,.T.);
#301=EDGE_CURVE('',#411,#412,#487,.F.);
#302=EDGE_CURVE('',#412,#413,#488,.T.);
#303=EDGE_CURVE('',#413,#414,#489,.F.);
#304=EDGE_CURVE('',#415,#414,#490,.T.);
#305=EDGE_CURVE('',#415,#416,#491,.T.);
#306=EDGE_CURVE('',#416,#417,#492,.T.);
#307=EDGE_CURVE('',#417,#410,#493,.T.);
#308=EDGE_CURVE('',#418,#419,#494,.T.);
#309=EDGE_CURVE('',#419,#420,#495,.T.);
#310=EDGE_CURVE('',#421,#420,#496,.T.);
#311=EDGE_CURVE('',#421,#418,#497,.F.);
#312=EDGE_CURVE('',#422,#423,#498,.T.);
#313=EDGE_CURVE('',#422,#424,#499,.T.);
#314=EDGE_CURVE('',#424,#425,#500,.T.);
#315=EDGE_CURVE('',#425,#423,#501,.F.);
#316=EDGE_CURVE('',#426,#427,#502,.T.);
#317=EDGE_CURVE('',#426,#428,#503,.F.);
#318=EDGE_CURVE('',#429,#428,#504,.T.);
#319=EDGE_CURVE('',#429,#430,#505,.F.);
#320=EDGE_CURVE('',#430,#431,#506,.T.);
#321=EDGE_CURVE('',#431,#432,#507,.T.);
#322=EDGE_CURVE('',#433,#432,#508,.T.);
#323=EDGE_CURVE('',#433,#427,#509,.T.);
#324=EDGE_CURVE('',#434,#435,#510,.T.);
#325=EDGE_CURVE('',#434,#436,#511,.T.);
#326=EDGE_CURVE('',#437,#436,#512,.T.);
#327=EDGE_CURVE('',#437,#438,#513,.F.);
#328=EDGE_CURVE('',#439,#438,#514,.T.);
#329=EDGE_CURVE('',#439,#440,#515,.F.);
#330=EDGE_CURVE('',#440,#441,#516,.T.);
#331=EDGE_CURVE('',#441,#435,#517,.T.);
#332=EDGE_CURVE('',#442,#443,#518,.T.);
#333=EDGE_CURVE('',#443,#444,#519,.F.);
#334=EDGE_CURVE('',#445,#444,#520,.T.);
#335=EDGE_CURVE('',#445,#442,#521,.T.);
#336=EDGE_CURVE('',#430,#409,#32,.F.);
#337=EDGE_CURVE('',#408,#415,#33,.F.);
#338=EDGE_CURVE('',#414,#441,#34,.F.);
#339=EDGE_CURVE('',#440,#431,#35,.F.);
#340=EDGE_CURVE('',#418,#422,#36,.T.);
#341=EDGE_CURVE('',#423,#445,#37,.T.);
#342=EDGE_CURVE('',#444,#446,#38,.F.);
#343=EDGE_CURVE('',#446,#447,#522,.T.);
#344=EDGE_CURVE('',#448,#447,#523,.T.);
#345=EDGE_CURVE('',#449,#448,#524,.T.);
#346=EDGE_CURVE('',#449,#419,#39,.F.);
#347=EDGE_CURVE('',#450,#451,#525,.T.);
#348=EDGE_CURVE('',#450,#426,#40,.T.);
#349=EDGE_CURVE('',#427,#452,#41,.T.);
#350=EDGE_CURVE('',#453,#452,#526,.T.);
#351=EDGE_CURVE('',#453,#437,#42,.T.);
#352=EDGE_CURVE('',#436,#454,#43,.T.);
#353=EDGE_CURVE('',#454,#455,#527,.T.);
#354=EDGE_CURVE('',#455,#411,#44,.T.);
#355=EDGE_CURVE('',#410,#456,#45,.T.);
#356=EDGE_CURVE('',#457,#456,#528,.T.);
#357=EDGE_CURVE('',#457,#405,#46,.T.);
#358=EDGE_CURVE('',#404,#451,#47,.T.);
#359=EDGE_CURVE('',#424,#421,#48,.F.);
#360=EDGE_CURVE('',#420,#458,#49,.T.);
#361=EDGE_CURVE('',#458,#459,#529,.T.);
#362=EDGE_CURVE('',#459,#460,#530,.T.);
#363=EDGE_CURVE('',#461,#460,#531,.T.);
#364=EDGE_CURVE('',#461,#443,#50,.T.);
#365=EDGE_CURVE('',#442,#425,#51,.F.);
#366=EDGE_CURVE('',#462,#462,#52,.T.);
#367=EDGE_CURVE('',#463,#463,#53,.T.);
#368=EDGE_CURVE('',#464,#464,#54,.T.);
#369=EDGE_CURVE('',#465,#465,#55,.T.);
#370=EDGE_CURVE('',#448,#459,#532,.T.);
#371=EDGE_CURVE('',#447,#460,#533,.T.);
#372=EDGE_CURVE('',#458,#449,#534,.F.);
#373=EDGE_CURVE('',#446,#461,#535,.T.);
#374=EDGE_CURVE('',#466,#467,#536,.T.);
#375=EDGE_CURVE('',#467,#455,#537,.T.);
#376=EDGE_CURVE('',#454,#466,#538,.F.);
#377=EDGE_CURVE('',#468,#468,#56,.T.);
#378=EDGE_CURVE('',#435,#413,#57,.T.);
#379=EDGE_CURVE('',#412,#467,#58,.F.);
#380=EDGE_CURVE('',#466,#434,#59,.F.);
#381=EDGE_CURVE('',#452,#469,#539,.F.);
#382=EDGE_CURVE('',#470,#469,#540,.T.);
#383=EDGE_CURVE('',#470,#453,#541,.T.);
#384=EDGE_CURVE('',#471,#471,#60,.T.);
#385=EDGE_CURVE('',#432,#439,#61,.T.);
#386=EDGE_CURVE('',#438,#470,#62,.F.);
#387=EDGE_CURVE('',#469,#433,#63,.F.);
#388=EDGE_CURVE('',#472,#473,#542,.T.);
#389=EDGE_CURVE('',#472,#457,#543,.T.);
#390=EDGE_CURVE('',#456,#473,#544,.F.);
#391=EDGE_CURVE('',#474,#474,#64,.T.);
#392=EDGE_CURVE('',#416,#407,#65,.T.);
#393=EDGE_CURVE('',#406,#472,#66,.F.);
#394=EDGE_CURVE('',#473,#417,#67,.F.);
#395=EDGE_CURVE('',#451,#475,#545,.F.);
#396=EDGE_CURVE('',#476,#475,#546,.T.);
#397=EDGE_CURVE('',#476,#450,#547,.T.);
#398=EDGE_CURVE('',#477,#477,#68,.T.);
#399=EDGE_CURVE('',#402,#429,#69,.T.);
#400=EDGE_CURVE('',#428,#476,#70,.F.);
#401=EDGE_CURVE('',#475,#403,#71,.F.);
#402=VERTEX_POINT('',#1114);
#403=VERTEX_POINT('',#1115);
#404=VERTEX_POINT('',#1117);
#405=VERTEX_POINT('',#1119);
#406=VERTEX_POINT('',#1121);
#407=VERTEX_POINT('',#1123);
#408=VERTEX_POINT('',#1125);
#409=VERTEX_POINT('',#1127);
#410=VERTEX_POINT('',#1131);
#411=VERTEX_POINT('',#1132);
#412=VERTEX_POINT('',#1134);
#413=VERTEX_POINT('',#1136);
#414=VERTEX_POINT('',#1138);
#415=VERTEX_POINT('',#1140);
#416=VERTEX_POINT('',#1142);
#417=VERTEX_POINT('',#1144);
#418=VERTEX_POINT('',#1148);
#419=VERTEX_POINT('',#1149);
#420=VERTEX_POINT('',#1151);
#421=VERTEX_POINT('',#1153);
#422=VERTEX_POINT('',#1157);
#423=VERTEX_POINT('',#1158);
#424=VERTEX_POINT('',#1160);
#425=VERTEX_POINT('',#1162);
#426=VERTEX_POINT('',#1166);
#427=VERTEX_POINT('',#1167);
#428=VERTEX_POINT('',#1169);
#429=VERTEX_POINT('',#1171);
#430=VERTEX_POINT('',#1173);
#431=VERTEX_POINT('',#1175);
#432=VERTEX_POINT('',#1177);
#433=VERTEX_POINT('',#1179);
#434=VERTEX_POINT('',#1183);
#435=VERTEX_POINT('',#1184);
#436=VERTEX_POINT('',#1186);
#437=VERTEX_POINT('',#1188);
#438=VERTEX_POINT('',#1190);
#439=VERTEX_POINT('',#1192);
#440=VERTEX_POINT('',#1194);
#441=VERTEX_POINT('',#1196);
#442=VERTEX_POINT('',#1200);
#443=VERTEX_POINT('',#1201);
#444=VERTEX_POINT('',#1203);
#445=VERTEX_POINT('',#1205);
#446=VERTEX_POINT('',#1215);
#447=VERTEX_POINT('',#1217);
#448=VERTEX_POINT('',#1219);
#449=VERTEX_POINT('',#1221);
#450=VERTEX_POINT('',#1225);
#451=VERTEX_POINT('',#1226);
#452=VERTEX_POINT('',#1229);
#453=VERTEX_POINT('',#1231);
#454=VERTEX_POINT('',#1234);
#455=VERTEX_POINT('',#1236);
#456=VERTEX_POINT('',#1239);
#457=VERTEX_POINT('',#1241);
#458=VERTEX_POINT('',#1246);
#459=VERTEX_POINT('',#1248);
#460=VERTEX_POINT('',#1250);
#461=VERTEX_POINT('',#1252);
#462=VERTEX_POINT('',#1256);
#463=VERTEX_POINT('',#1258);
#464=VERTEX_POINT('',#1260);
#465=VERTEX_POINT('',#1262);
#466=VERTEX_POINT('',#1272);
#467=VERTEX_POINT('',#1273);
#468=VERTEX_POINT('',#1278);
#469=VERTEX_POINT('',#1285);
#470=VERTEX_POINT('',#1287);
#471=VERTEX_POINT('',#1291);
#472=VERTEX_POINT('',#1298);
#473=VERTEX_POINT('',#1299);
#474=VERTEX_POINT('',#1304);
#475=VERTEX_POINT('',#1311);
#476=VERTEX_POINT('',#1313);
#477=VERTEX_POINT('',#1317);
#478=LINE('',#1113,#548);
#479=LINE('',#1116,#549);
#480=LINE('',#1118,#550);
#481=LINE('',#1120,#551);
#482=LINE('',#1122,#552);
#483=LINE('',#1124,#553);
#484=LINE('',#1126,#554);
#485=LINE('',#1128,#555);
#486=LINE('',#1130,#556);
#487=LINE('',#1133,#557);
#488=LINE('',#1135,#558);
#489=LINE('',#1137,#559);
#490=LINE('',#1139,#560);
#491=LINE('',#1141,#561);
#492=LINE('',#1143,#562);
#493=LINE('',#1145,#563);
#494=LINE('',#1147,#564);
#495=LINE('',#1150,#565);
#496=LINE('',#1152,#566);
#497=LINE('',#1154,#567);
#498=LINE('',#1156,#568);
#499=LINE('',#1159,#569);
#500=LINE('',#1161,#570);
#501=LINE('',#1163,#571);
#502=LINE('',#1165,#572);
#503=LINE('',#1168,#573);
#504=LINE('',#1170,#574);
#505=LINE('',#1172,#575);
#506=LINE('',#1174,#576);
#507=LINE('',#1176,#577);
#508=LINE('',#1178,#578);
#509=LINE('',#1180,#579);
#510=LINE('',#1182,#580);
#511=LINE('',#1185,#581);
#512=LINE('',#1187,#582);
#513=LINE('',#1189,#583);
#514=LINE('',#1191,#584);
#515=LINE('',#1193,#585);
#516=LINE('',#1195,#586);
#517=LINE('',#1197,#587);
#518=LINE('',#1199,#588);
#519=LINE('',#1202,#589);
#520=LINE('',#1204,#590);
#521=LINE('',#1206,#591);
#522=LINE('',#1216,#592);
#523=LINE('',#1218,#593);
#524=LINE('',#1220,#594);
#525=LINE('',#1224,#595);
#526=LINE('',#1230,#596);
#527=LINE('',#1235,#597);
#528=LINE('',#1240,#598);
#529=LINE('',#1247,#599);
#530=LINE('',#1249,#600);
#531=LINE('',#1251,#601);
#532=LINE('',#1264,#602);
#533=LINE('',#1265,#603);
#534=LINE('',#1267,#604);
#535=LINE('',#1269,#605);
#536=LINE('',#1271,#606);
#537=LINE('',#1274,#607);
#538=LINE('',#1275,#608);
#539=LINE('',#1284,#609);
#540=LINE('',#1286,#610);
#541=LINE('',#1288,#611);
#542=LINE('',#1297,#612);
#543=LINE('',#1300,#613);
#544=LINE('',#1301,#614);
#545=LINE('',#1310,#615);
#546=LINE('',#1312,#616);
#547=LINE('',#1314,#617);
#548=VECTOR('',#883,1000.);
#549=VECTOR('',#884,1000.);
#550=VECTOR('',#885,1000.);
#551=VECTOR('',#886,1000.);
#552=VECTOR('',#887,1000.);
#553=VECTOR('',#888,1000.);
#554=VECTOR('',#889,1000.);
#555=VECTOR('',#890,1000.);
#556=VECTOR('',#893,1000.);
#557=VECTOR('',#894,1000.);
#558=VECTOR('',#895,1000.);
#559=VECTOR('',#896,1000.);
#560=VECTOR('',#897,1000.);
#561=VECTOR('',#898,1000.);
#562=VECTOR('',#899,1000.);
#563=VECTOR('',#900,1000.);
#564=VECTOR('',#903,1000.);
#565=VECTOR('',#904,1000.);
#566=VECTOR('',#905,1000.);
#567=VECTOR('',#906,1000.);
#568=VECTOR('',#909,1000.);
#569=VECTOR('',#910,1000.);
#570=VECTOR('',#911,1000.);
#571=VECTOR('',#912,1000.);
#572=VECTOR('',#915,1000.);
#573=VECTOR('',#916,1000.);
#574=VECTOR('',#917,1000.);
#575=VECTOR('',#918,1000.);
#576=VECTOR('',#919,1000.);
#577=VECTOR('',#920,1000.);
#578=VECTOR('',#921,1000.);
#579=VECTOR('',#922,1000.);
#580=VECTOR('',#925,1000.);
#581=VECTOR('',#926,1000.);
#582=VECTOR('',#927,1000.);
#583=VECTOR('',#928,1000.);
#584=VECTOR('',#929,1000.);
#585=VECTOR('',#930,1000.);
#586=VECTOR('',#931,1000.);
#587=VECTOR('',#932,1000.);
#588=VECTOR('',#935,1000.);
#589=VECTOR('',#936,1000.);
#590=VECTOR('',#937,1000.);
#591=VECTOR('',#938,1000.);
#592=VECTOR('',#955,1000.);
#593=VECTOR('',#956,1000.);
#594=VECTOR('',#957,1000.);
#595=VECTOR('',#962,1000.);
#596=VECTOR('',#967,1000.);
#597=VECTOR('',#972,1000.);
#598=VECTOR('',#977,1000.);
#599=VECTOR('',#986,1000.);
#600=VECTOR('',#987,1000.);
#601=VECTOR('',#988,1000.);
#602=VECTOR('',#1003,1000.);
#603=VECTOR('',#1004,1000.);
#604=VECTOR('',#1007,1000.);
#605=VECTOR('',#1010,1000.);
#606=VECTOR('',#1013,1000.);
#607=VECTOR('',#1014,1000.);
#608=VECTOR('',#1015,1000.);
#609=VECTOR('',#1030,1000.);
#610=VECTOR('',#1031,1000.);
#611=VECTOR('',#1032,1000.);
#612=VECTOR('',#1047,1000.);
#613=VECTOR('',#1048,1000.);
#614=VECTOR('',#1049,1000.);
#615=VECTOR('',#1064,1000.);
#616=VECTOR('',#1065,1000.);
#617=VECTOR('',#1066,1000.);
#618=EDGE_LOOP('',(#72,#73,#74,#75,#76,#77,#78,#79));
#619=EDGE_LOOP('',(#80,#81,#82,#83,#84,#85,#86,#87));
#620=EDGE_LOOP('',(#88,#89,#90,#91));
#621=EDGE_LOOP('',(#92,#93,#94,#95));
#622=EDGE_LOOP('',(#96,#97,#98,#99,#100,#101,#102,#103));
#623=EDGE_LOOP('',(#104,#105,#106,#107,#108,#109,#110,#111));
#624=EDGE_LOOP('',(#112,#113,#114,#115));
#625=EDGE_LOOP('',(#116,#117,#118,#119,#120,#121,#122,#123));
#626=EDGE_LOOP('',(#124,#125,#126,#127,#128,#129,#130,#131,#132,#133));
#627=EDGE_LOOP('',(#134,#135,#136,#137,#138,#139,#140,#141,#142,#143,#144,
#145,#146,#147,#148,#149));
#628=EDGE_LOOP('',(#150,#151,#152,#153,#154,#155,#156,#157,#158,#159));
#629=EDGE_LOOP('',(#160));
#630=EDGE_LOOP('',(#161));
#631=EDGE_LOOP('',(#162));
#632=EDGE_LOOP('',(#163));
#633=EDGE_LOOP('',(#164,#165,#166,#167));
#634=EDGE_LOOP('',(#168,#169,#170,#171));
#635=EDGE_LOOP('',(#172,#173,#174,#175));
#636=EDGE_LOOP('',(#176,#177,#178,#179));
#637=EDGE_LOOP('',(#180));
#638=EDGE_LOOP('',(#181));
#639=EDGE_LOOP('',(#182,#183,#184,#185,#186,#187));
#640=EDGE_LOOP('',(#188));
#641=EDGE_LOOP('',(#189,#190,#191,#192));
#642=EDGE_LOOP('',(#193));
#643=EDGE_LOOP('',(#194));
#644=EDGE_LOOP('',(#195));
#645=EDGE_LOOP('',(#196,#197,#198,#199,#200,#201));
#646=EDGE_LOOP('',(#202,#203,#204,#205));
#647=EDGE_LOOP('',(#206));
#648=EDGE_LOOP('',(#207));
#649=EDGE_LOOP('',(#208,#209,#210,#211,#212,#213));
#650=EDGE_LOOP('',(#214));
#651=EDGE_LOOP('',(#215,#216,#217,#218));
#652=EDGE_LOOP('',(#219));
#653=EDGE_LOOP('',(#220));
#654=EDGE_LOOP('',(#221,#222,#223,#224,#225,#226));
#655=EDGE_LOOP('',(#227));
#656=EDGE_LOOP('',(#228,#229,#230,#231));
#657=EDGE_LOOP('',(#232,#233,#234,#235));
#658=EDGE_LOOP('',(#236,#237,#238,#239));
#659=EDGE_LOOP('',(#240,#241,#242,#243));
#660=EDGE_LOOP('',(#244,#245,#246,#247));
#661=EDGE_LOOP('',(#248,#249,#250,#251));
#662=EDGE_LOOP('',(#252,#253,#254,#255));
#663=EDGE_LOOP('',(#256,#257,#258,#259));
#664=EDGE_LOOP('',(#260,#261,#262,#263));
#665=EDGE_LOOP('',(#264,#265,#266,#267));
#666=EDGE_LOOP('',(#268,#269,#270,#271));
#667=EDGE_LOOP('',(#272,#273,#274,#275));
#668=EDGE_LOOP('',(#276,#277,#278,#279));
#669=EDGE_LOOP('',(#280,#281,#282,#283));
#670=EDGE_LOOP('',(#284,#285,#286,#287));
#671=EDGE_LOOP('',(#288,#289,#290,#291));
#672=FACE_BOUND('',#618,.T.);
#673=FACE_BOUND('',#619,.T.);
#674=FACE_BOUND('',#620,.T.);
#675=FACE_BOUND('',#621,.T.);
#676=FACE_BOUND('',#622,.T.);
#677=FACE_BOUND('',#623,.T.);
#678=FACE_BOUND('',#624,.T.);
#679=FACE_BOUND('',#625,.T.);
#680=FACE_BOUND('',#626,.T.);
#681=FACE_BOUND('',#627,.T.);
#682=FACE_BOUND('',#628,.T.);
#683=FACE_BOUND('',#629,.T.);
#684=FACE_BOUND('',#630,.T.);
#685=FACE_BOUND('',#631,.T.);
#686=FACE_BOUND('',#632,.T.);
#687=FACE_BOUND('',#633,.T.);
#688=FACE_BOUND('',#634,.T.);
#689=FACE_BOUND('',#635,.T.);
#690=FACE_BOUND('',#636,.T.);
#691=FACE_BOUND('',#637,.T.);
#692=FACE_BOUND('',#638,.T.);
#693=FACE_BOUND('',#639,.T.);
#694=FACE_BOUND('',#640,.T.);
#695=FACE_BOUND('',#641,.T.);
#696=FACE_BOUND('',#642,.T.);
#697=FACE_BOUND('',#643,.T.);
#698=FACE_BOUND('',#644,.T.);
#699=FACE_BOUND('',#645,.T.);
#700=FACE_BOUND('',#646,.T.);
#701=FACE_BOUND('',#647,.T.);
#702=FACE_BOUND('',#648,.T.);
#703=FACE_BOUND('',#649,.T.);
#704=FACE_BOUND('',#650,.T.);
#705=FACE_BOUND('',#651,.T.);
#706=FACE_BOUND('',#652,.T.);
#707=FACE_BOUND('',#653,.T.);
#708=FACE_BOUND('',#654,.T.);
#709=FACE_BOUND('',#655,.T.);
#710=FACE_BOUND('',#656,.T.);
#711=FACE_BOUND('',#657,.T.);
#712=FACE_BOUND('',#658,.T.);
#713=FACE_BOUND('',#659,.T.);
#714=FACE_BOUND('',#660,.T.);
#715=FACE_BOUND('',#661,.T.);
#716=FACE_BOUND('',#662,.T.);
#717=FACE_BOUND('',#663,.T.);
#718=FACE_BOUND('',#664,.T.);
#719=FACE_BOUND('',#665,.T.);
#720=FACE_BOUND('',#666,.T.);
#721=FACE_BOUND('',#667,.T.);
#722=FACE_BOUND('',#668,.T.);
#723=FACE_BOUND('',#669,.T.);
#724=FACE_BOUND('',#670,.T.);
#725=FACE_BOUND('',#671,.T.);
#726=PLANE('',#799);
#727=PLANE('',#800);
#728=PLANE('',#801);
#729=PLANE('',#802);
#730=PLANE('',#803);
#731=PLANE('',#804);
#732=PLANE('',#805);
#733=PLANE('',#806);
#734=PLANE('',#815);
#735=PLANE('',#832);
#736=PLANE('',#833);
#737=PLANE('',#834);
#738=PLANE('',#835);
#739=PLANE('',#838);
#740=PLANE('',#842);
#741=PLANE('',#845);
#742=PLANE('',#849);
#743=PLANE('',#852);
#744=PLANE('',#856);
#745=PLANE('',#859);
#746=ADVANCED_FACE('',(#672),#726,.F.);
#747=ADVANCED_FACE('',(#673),#727,.F.);
#748=ADVANCED_FACE('',(#674),#728,.T.);
#749=ADVANCED_FACE('',(#675),#729,.F.);
#750=ADVANCED_FACE('',(#676),#730,.T.);
#751=ADVANCED_FACE('',(#677),#731,.T.);
#752=ADVANCED_FACE('',(#678),#732,.F.);
#753=ADVANCED_FACE('',(#679,#680),#733,.T.);
#754=ADVANCED_FACE('',(#681,#682,#683,#684,#685,#686),#734,.F.);
#755=ADVANCED_FACE('',(#687),#735,.T.);
#756=ADVANCED_FACE('',(#688),#736,.T.);
#757=ADVANCED_FACE('',(#689),#737,.F.);
#758=ADVANCED_FACE('',(#690),#738,.T.);
#759=ADVANCED_FACE('',(#691,#692),#12,.F.);
#760=ADVANCED_FACE('',(#693,#694),#739,.T.);
#761=ADVANCED_FACE('',(#695),#740,.F.);
#762=ADVANCED_FACE('',(#696,#697),#13,.F.);
#763=ADVANCED_FACE('',(#698,#699),#741,.T.);
#764=ADVANCED_FACE('',(#700),#742,.F.);
#765=ADVANCED_FACE('',(#701,#702),#14,.F.);
#766=ADVANCED_FACE('',(#703,#704),#743,.T.);
#767=ADVANCED_FACE('',(#705),#744,.F.);
#768=ADVANCED_FACE('',(#706,#707),#15,.F.);
#769=ADVANCED_FACE('',(#708,#709),#745,.T.);
#770=ADVANCED_FACE('',(#710),#16,.F.);
#771=ADVANCED_FACE('',(#711),#17,.F.);
#772=ADVANCED_FACE('',(#712),#18,.F.);
#773=ADVANCED_FACE('',(#713),#19,.F.);
#774=ADVANCED_FACE('',(#714),#20,.F.);
#775=ADVANCED_FACE('',(#715),#21,.F.);
#776=ADVANCED_FACE('',(#716),#22,.F.);
#777=ADVANCED_FACE('',(#717),#23,.F.);
#778=ADVANCED_FACE('',(#718),#24,.F.);
#779=ADVANCED_FACE('',(#719),#25,.F.);
#780=ADVANCED_FACE('',(#720),#26,.F.);
#781=ADVANCED_FACE('',(#721),#27,.F.);
#782=ADVANCED_FACE('',(#722),#28,.F.);
#783=ADVANCED_FACE('',(#723),#29,.F.);
#784=ADVANCED_FACE('',(#724),#30,.T.);
#785=ADVANCED_FACE('',(#725),#31,.T.);
#786=CLOSED_SHELL('',(#746,#747,#748,#749,#750,#751,#752,#753,#754,#755,
#756,#757,#758,#759,#760,#761,#762,#763,#764,#765,#766,#767,#768,#769,#770,
#771,#772,#773,#774,#775,#776,#777,#778,#779,#780,#781,#782,#783,#784,#785));
#787=STYLED_ITEM('',(#788),#795);
#788=PRESENTATION_STYLE_ASSIGNMENT((#789));
#789=SURFACE_STYLE_USAGE(.BOTH.,#790);
#790=SURFACE_SIDE_STYLE('',(#791));
#791=SURFACE_STYLE_FILL_AREA(#792);
#792=FILL_AREA_STYLE('',(#793));
#793=FILL_AREA_STYLE_COLOUR('',#794);
#794=COLOUR_RGB('',0.615686274509804,0.811764705882353,0.929411764705882);
#795=MANIFOLD_SOLID_BREP('Part 1',#786);
#796=SHAPE_DEFINITION_REPRESENTATION(#1344,#797);
#797=SHAPE_REPRESENTATION('Part 1',(#798),#1339);
#798=AXIS2_PLACEMENT_3D('',#1111,#879,#880);
#799=AXIS2_PLACEMENT_3D('',#1112,#881,#882);
#800=AXIS2_PLACEMENT_3D('',#1129,#891,#892);
#801=AXIS2_PLACEMENT_3D('',#1146,#901,#902);
#802=AXIS2_PLACEMENT_3D('',#1155,#907,#908);
#803=AXIS2_PLACEMENT_3D('',#1164,#913,#914);
#804=AXIS2_PLACEMENT_3D('',#1181,#923,#924);
#805=AXIS2_PLACEMENT_3D('',#1198,#933,#934);
#806=AXIS2_PLACEMENT_3D('',#1207,#939,#940);
#807=AXIS2_PLACEMENT_3D('',#1208,#941,#942);
#808=AXIS2_PLACEMENT_3D('',#1209,#943,#944);
#809=AXIS2_PLACEMENT_3D('',#1210,#945,#946);
#810=AXIS2_PLACEMENT_3D('',#1211,#947,#948);
#811=AXIS2_PLACEMENT_3D('',#1212,#949,#950);
#812=AXIS2_PLACEMENT_3D('',#1213,#951,#952);
#813=AXIS2_PLACEMENT_3D('',#1214,#953,#954);
#814=AXIS2_PLACEMENT_3D('',#1222,#958,#959);
#815=AXIS2_PLACEMENT_3D('',#1223,#960,#961);
#816=AXIS2_PLACEMENT_3D('',#1227,#963,#964);
#817=AXIS2_PLACEMENT_3D('',#1228,#965,#966);
#818=AXIS2_PLACEMENT_3D('',#1232,#968,#969);
#819=AXIS2_PLACEMENT_3D('',#1233,#970,#971);
#820=AXIS2_PLACEMENT_3D('',#1237,#973,#974);
#821=AXIS2_PLACEMENT_3D('',#1238,#975,#976);
#822=AXIS2_PLACEMENT_3D('',#1242,#978,#979);
#823=AXIS2_PLACEMENT_3D('',#1243,#980,#981);
#824=AXIS2_PLACEMENT_3D('',#1244,#982,#983);
#825=AXIS2_PLACEMENT_3D('',#1245,#984,#985);
#826=AXIS2_PLACEMENT_3D('',#1253,#989,#990);
#827=AXIS2_PLACEMENT_3D('',#1254,#991,#992);
#828=AXIS2_PLACEMENT_3D('',#1255,#993,#994);
#829=AXIS2_PLACEMENT_3D('',#1257,#995,#996);
#830=AXIS2_PLACEMENT_3D('',#1259,#997,#998);
#831=AXIS2_PLACEMENT_3D('',#1261,#999,#1000);
#832=AXIS2_PLACEMENT_3D('',#1263,#1001,#1002);
#833=AXIS2_PLACEMENT_3D('',#1266,#1005,#1006);
#834=AXIS2_PLACEMENT_3D('',#1268,#1008,#1009);
#835=AXIS2_PLACEMENT_3D('',#1270,#1011,#1012);
#836=AXIS2_PLACEMENT_3D('',#1276,#1016,#1017);
#837=AXIS2_PLACEMENT_3D('',#1277,#1018,#1019);
#838=AXIS2_PLACEMENT_3D('',#1279,#1020,#1021);
#839=AXIS2_PLACEMENT_3D('',#1280,#1022,#1023);
#840=AXIS2_PLACEMENT_3D('',#1281,#1024,#1025);
#841=AXIS2_PLACEMENT_3D('',#1282,#1026,#1027);
#842=AXIS2_PLACEMENT_3D('',#1283,#1028,#1029);
#843=AXIS2_PLACEMENT_3D('',#1289,#1033,#1034);
#844=AXIS2_PLACEMENT_3D('',#1290,#1035,#1036);
#845=AXIS2_PLACEMENT_3D('',#1292,#1037,#1038);
#846=AXIS2_PLACEMENT_3D('',#1293,#1039,#1040);
#847=AXIS2_PLACEMENT_3D('',#1294,#1041,#1042);
#848=AXIS2_PLACEMENT_3D('',#1295,#1043,#1044);
#849=AXIS2_PLACEMENT_3D('',#1296,#1045,#1046);
#850=AXIS2_PLACEMENT_3D('',#1302,#1050,#1051);
#851=AXIS2_PLACEMENT_3D('',#1303,#1052,#1053);
#852=AXIS2_PLACEMENT_3D('',#1305,#1054,#1055);
#853=AXIS2_PLACEMENT_3D('',#1306,#1056,#1057);
#854=AXIS2_PLACEMENT_3D('',#1307,#1058,#1059);
#855=AXIS2_PLACEMENT_3D('',#1308,#1060,#1061);
#856=AXIS2_PLACEMENT_3D('',#1309,#1062,#1063);
#857=AXIS2_PLACEMENT_3D('',#1315,#1067,#1068);
#858=AXIS2_PLACEMENT_3D('',#1316,#1069,#1070);
#859=AXIS2_PLACEMENT_3D('',#1318,#1071,#1072);
#860=AXIS2_PLACEMENT_3D('',#1319,#1073,#1074);
#861=AXIS2_PLACEMENT_3D('',#1320,#1075,#1076);
#862=AXIS2_PLACEMENT_3D('',#1321,#1077,#1078);
#863=AXIS2_PLACEMENT_3D('',#1322,#1079,#1080);
#864=AXIS2_PLACEMENT_3D('',#1323,#1081,#1082);
#865=AXIS2_PLACEMENT_3D('',#1324,#1083,#1084);
#866=AXIS2_PLACEMENT_3D('',#1325,#1085,#1086);
#867=AXIS2_PLACEMENT_3D('',#1326,#1087,#1088);
#868=AXIS2_PLACEMENT_3D('',#1327,#1089,#1090);
#869=AXIS2_PLACEMENT_3D('',#1328,#1091,#1092);
#870=AXIS2_PLACEMENT_3D('',#1329,#1093,#1094);
#871=AXIS2_PLACEMENT_3D('',#1330,#1095,#1096);
#872=AXIS2_PLACEMENT_3D('',#1331,#1097,#1098);
#873=AXIS2_PLACEMENT_3D('',#1332,#1099,#1100);
#874=AXIS2_PLACEMENT_3D('',#1333,#1101,#1102);
#875=AXIS2_PLACEMENT_3D('',#1334,#1103,#1104);
#876=AXIS2_PLACEMENT_3D('',#1335,#1105,#1106);
#877=AXIS2_PLACEMENT_3D('',#1336,#1107,#1108);
#878=AXIS2_PLACEMENT_3D('',#1337,#1109,#1110);
#879=DIRECTION('',(0.,0.,1.));
#880=DIRECTION('',(1.,0.,0.));
#881=DIRECTION('',(1.,0.,0.));
#882=DIRECTION('',(0.,0.,-1.));
#883=DIRECTION('',(0.,-1.,0.));
#884=DIRECTION('',(0.,0.,-1.));
#885=DIRECTION('',(0.,-1.,0.));
#886=DIRECTION('',(0.,0.,-1.));
#887=DIRECTION('',(0.,-1.,0.));
#888=DIRECTION('',(0.,0.,-1.));
#889=DIRECTION('',(0.,-1.,0.));
#890=DIRECTION('',(0.,0.,-1.));
#891=DIRECTION('',(0.,-1.,0.));
#892=DIRECTION('',(0.,0.,-1.));
#893=DIRECTION('',(-1.,0.,0.));
#894=DIRECTION('',(0.,0.,-1.));
#895=DIRECTION('',(-1.,0.,0.));
#896=DIRECTION('',(0.,0.,-1.));
#897=DIRECTION('',(-1.,0.,0.));
#898=DIRECTION('',(0.,0.,-1.));
#899=DIRECTION('',(-1.,0.,0.));
#900=DIRECTION('',(0.,0.,-1.));
#901=DIRECTION('',(1.,2.77555756156289E-16,0.));
#902=DIRECTION('',(-2.77555756156289E-16,1.,0.));
#903=DIRECTION('',(2.77555756156289E-16,-1.,0.));
#904=DIRECTION('',(0.,0.,-1.));
#905=DIRECTION('',(2.77555756156289E-16,-1.,0.));
#906=DIRECTION('',(0.,0.,-1.));
#907=DIRECTION('',(1.38777878078145E-16,-1.,0.));
#908=DIRECTION('',(1.,1.38777878078145E-16,0.));
#909=DIRECTION('',(-1.,-1.38777878078145E-16,0.));
#910=DIRECTION('',(0.,0.,-1.));
#911=DIRECTION('',(-1.,-1.38777878078145E-16,0.));
#912=DIRECTION('',(0.,0.,-1.));
#913=DIRECTION('',(0.,-1.,0.));
#914=DIRECTION('',(0.,0.,-1.));
#915=DIRECTION('',(-1.,0.,0.));
#916=DIRECTION('',(0.,0.,-1.));
#917=DIRECTION('',(-1.,0.,0.));
#918=DIRECTION('',(0.,0.,-1.));
#919=DIRECTION('',(-1.,0.,0.));
#920=DIRECTION('',(0.,0.,-1.));
#921=DIRECTION('',(-1.,0.,0.));
#922=DIRECTION('',(0.,0.,-1.));
#923=DIRECTION('',(1.,0.,0.));
#924=DIRECTION('',(0.,0.,-1.));
#925=DIRECTION('',(0.,-1.,0.));
#926=DIRECTION('',(0.,0.,-1.));
#927=DIRECTION('',(0.,-1.,0.));
#928=DIRECTION('',(0.,0.,-1.));
#929=DIRECTION('',(0.,-1.,0.));
#930=DIRECTION('',(0.,0.,-1.));
#931=DIRECTION('',(0.,-1.,0.));
#932=DIRECTION('',(0.,0.,-1.));
#933=DIRECTION('',(1.,2.77555756156289E-16,0.));
#934=DIRECTION('',(-2.77555756156289E-16,1.,0.));
#935=DIRECTION('',(2.77555756156289E-16,-1.,0.));
#936=DIRECTION('',(0.,0.,-1.));
#937=DIRECTION('',(2.77555756156289E-16,-1.,0.));
#938=DIRECTION('',(0.,0.,-1.));
#939=DIRECTION('',(0.,0.,1.));
#940=DIRECTION('',(1.,0.,0.));
#941=DIRECTION('',(0.,0.,1.));
#942=DIRECTION('',(1.,0.,0.));
#943=DIRECTION('',(0.,0.,1.));
#944=DIRECTION('',(1.,0.,0.));
#945=DIRECTION('',(0.,0.,1.));
#946=DIRECTION('',(1.,0.,0.));
#947=DIRECTION('',(0.,0.,1.));
#948=DIRECTION('',(1.,0.,0.));
#949=DIRECTION('',(0.,0.,1.));
#950=DIRECTION('',(1.,0.,0.));
#951=DIRECTION('',(0.,0.,1.));
#952=DIRECTION('',(1.,0.,0.));
#953=DIRECTION('',(0.,0.,1.));
#954=DIRECTION('',(1.,0.,0.));
#955=DIRECTION('',(-0.781897668622006,-0.62340679800871,0.));
#956=DIRECTION('',(-1.,0.,0.));
#957=DIRECTION('',(0.781897668622005,-0.62340679800871,0.));
#958=DIRECTION('',(0.,0.,1.));
#959=DIRECTION('',(1.,0.,0.));
#960=DIRECTION('',(0.,0.,1.));
#961=DIRECTION('',(1.,0.,0.));
#962=DIRECTION('',(0.707106781186548,-0.707106781186548,0.));
#963=DIRECTION('',(0.,0.,1.));
#964=DIRECTION('',(1.,0.,0.));
#965=DIRECTION('',(0.,0.,1.));
#966=DIRECTION('',(1.,0.,0.));
#967=DIRECTION('',(0.707106781186548,0.707106781186548,0.));
#968=DIRECTION('',(0.,0.,1.));
#969=DIRECTION('',(1.,0.,0.));
#970=DIRECTION('',(0.,0.,1.));
#971=DIRECTION('',(1.,0.,0.));
#972=DIRECTION('',(0.707106781186548,-0.707106781186548,0.));
#973=DIRECTION('',(0.,0.,1.));
#974=DIRECTION('',(1.,0.,0.));
#975=DIRECTION('',(0.,0.,1.));
#976=DIRECTION('',(1.,0.,0.));
#977=DIRECTION('',(-0.707106781186548,-0.707106781186548,0.));
#978=DIRECTION('',(0.,0.,1.));
#979=DIRECTION('',(1.,0.,0.));
#980=DIRECTION('',(0.,0.,1.));
#981=DIRECTION('',(1.,0.,0.));
#982=DIRECTION('',(0.,0.,1.));
#983=DIRECTION('',(1.,0.,0.));
#984=DIRECTION('',(0.,0.,1.));
#985=DIRECTION('',(1.,0.,0.));
#986=DIRECTION('',(0.781897668622005,-0.62340679800871,0.));
#987=DIRECTION('',(-1.,0.,0.));
#988=DIRECTION('',(-0.781897668622006,-0.62340679800871,0.));
#989=DIRECTION('',(0.,0.,1.));
#990=DIRECTION('',(1.,0.,0.));
#991=DIRECTION('',(0.,0.,1.));
#992=DIRECTION('',(1.,0.,0.));
#993=DIRECTION('',(0.,0.,1.));
#994=DIRECTION('',(1.,0.,0.));
#995=DIRECTION('',(0.,0.,1.));
#996=DIRECTION('',(1.,0.,0.));
#997=DIRECTION('',(0.,0.,1.));
#998=DIRECTION('',(1.,0.,0.));
#999=DIRECTION('',(0.,0.,1.));
#1000=DIRECTION('',(1.,0.,0.));
#1001=DIRECTION('',(0.,-1.,0.));
#1002=DIRECTION('',(0.,0.,-1.));
#1003=DIRECTION('',(0.,0.,-1.));
#1004=DIRECTION('',(0.,0.,-1.));
#1005=DIRECTION('',(0.62340679800871,0.781897668622005,0.));
#1006=DIRECTION('',(-0.781897668622005,0.62340679800871,0.));
#1007=DIRECTION('',(0.,0.,-1.));
#1008=DIRECTION('',(0.623406798008709,-0.781897668622006,0.));
#1009=DIRECTION('',(0.781897668622006,0.62340679800871,0.));
#1010=DIRECTION('',(0.,0.,-1.));
#1011=DIRECTION('',(0.707106781186548,0.707106781186548,0.));
#1012=DIRECTION('',(-0.707106781186548,0.707106781186548,0.));
#1013=DIRECTION('',(0.707106781186548,-0.707106781186548,0.));
#1014=DIRECTION('',(0.,0.,-1.));
#1015=DIRECTION('',(0.,0.,-1.));
#1016=DIRECTION('',(0.,0.,-1.));
#1017=DIRECTION('',(-1.,0.,0.));
#1018=DIRECTION('',(0.,0.,1.));
#1019=DIRECTION('',(1.,0.,0.));
#1020=DIRECTION('',(0.,0.,1.));
#1021=DIRECTION('',(1.,0.,0.));
#1022=DIRECTION('',(0.,0.,1.));
#1023=DIRECTION('',(1.,0.,0.));
#1024=DIRECTION('',(0.,0.,1.));
#1025=DIRECTION('',(1.,0.,0.));
#1026=DIRECTION('',(0.,0.,1.));
#1027=DIRECTION('',(1.,0.,0.));
#1028=DIRECTION('',(-0.707106781186548,0.707106781186548,0.));
#1029=DIRECTION('',(-0.707106781186548,-0.707106781186548,0.));
#1030=DIRECTION('',(0.,0.,-1.));
#1031=DIRECTION('',(0.707106781186548,0.707106781186548,0.));
#1032=DIRECTION('',(0.,0.,-1.));
#1033=DIRECTION('',(0.,0.,-1.));
#1034=DIRECTION('',(-1.,0.,0.));
#1035=DIRECTION('',(0.,0.,1.));
#1036=DIRECTION('',(1.,0.,0.));
#1037=DIRECTION('',(0.,0.,1.));
#1038=DIRECTION('',(1.,0.,0.));
#1039=DIRECTION('',(0.,0.,1.));
#1040=DIRECTION('',(1.,0.,0.));
#1041=DIRECTION('',(0.,0.,1.));
#1042=DIRECTION('',(1.,0.,0.));
#1043=DIRECTION('',(0.,0.,1.));
#1044=DIRECTION('',(1.,0.,0.));
#1045=DIRECTION('',(0.707106781186548,-0.707106781186548,0.));
#1046=DIRECTION('',(0.707106781186548,0.707106781186548,0.));
#1047=DIRECTION('',(-0.707106781186548,-0.707106781186548,0.));
#1048=DIRECTION('',(0.,0.,-1.));
#1049=DIRECTION('',(0.,0.,-1.));
#1050=DIRECTION('',(0.,0.,-1.));
#1051=DIRECTION('',(-1.,0.,0.));
#1052=DIRECTION('',(0.,0.,1.));
#1053=DIRECTION('',(1.,0.,0.));
#1054=DIRECTION('',(0.,0.,1.));
#1055=DIRECTION('',(1.,0.,0.));
#1056=DIRECTION('',(0.,0.,1.));
#1057=DIRECTION('',(1.,0.,0.));
#1058=DIRECTION('',(0.,0.,1.));
#1059=DIRECTION('',(1.,0.,0.));
#1060=DIRECTION('',(0.,0.,1.));
#1061=DIRECTION('',(1.,0.,0.));
#1062=DIRECTION('',(0.707106781186548,0.707106781186548,0.));
#1063=DIRECTION('',(-0.707106781186548,0.707106781186548,0.));
#1064=DIRECTION('',(0.,0.,-1.));
#1065=DIRECTION('',(0.707106781186548,-0.707106781186548,0.));
#1066=DIRECTION('',(0.,0.,-1.));
#1067=DIRECTION('',(0.,0.,-1.));
#1068=DIRECTION('',(-1.,0.,0.));
#1069=DIRECTION('',(0.,0.,1.));
#1070=DIRECTION('',(1.,0.,0.));
#1071=DIRECTION('',(0.,0.,1.));
#1072=DIRECTION('',(1.,0.,0.));
#1073=DIRECTION('',(0.,0.,1.));
#1074=DIRECTION('',(1.,0.,0.));
#1075=DIRECTION('',(0.,0.,1.));
#1076=DIRECTION('',(1.,0.,0.));
#1077=DIRECTION('',(0.,0.,1.));
#1078=DIRECTION('',(1.,0.,0.));
#1079=DIRECTION('',(0.,0.,1.));
#1080=DIRECTION('',(1.,0.,0.));
#1081=DIRECTION('',(0.,0.,-1.));
#1082=DIRECTION('',(-1.,0.,0.));
#1083=DIRECTION('',(0.,0.,-1.));
#1084=DIRECTION('',(-1.,0.,0.));
#1085=DIRECTION('',(0.,0.,1.));
#1086=DIRECTION('',(1.,0.,0.));
#1087=DIRECTION('',(0.,0.,1.));
#1088=DIRECTION('',(1.,0.,0.));
#1089=DIRECTION('',(0.,0.,1.));
#1090=DIRECTION('',(1.,0.,0.));
#1091=DIRECTION('',(0.,0.,-1.));
#1092=DIRECTION('',(-1.,0.,0.));
#1093=DIRECTION('',(0.,0.,-1.));
#1094=DIRECTION('',(-1.,0.,0.));
#1095=DIRECTION('',(0.,0.,-1.));
#1096=DIRECTION('',(-1.,0.,0.));
#1097=DIRECTION('',(0.,0.,1.));
#1098=DIRECTION('',(1.,0.,0.));
#1099=DIRECTION('',(0.,0.,-1.));
#1100=DIRECTION('',(-1.,0.,0.));
#1101=DIRECTION('',(0.,0.,1.));
#1102=DIRECTION('',(1.,0.,0.));
#1103=DIRECTION('',(0.,0.,1.));
#1104=DIRECTION('',(1.,0.,0.));
#1105=DIRECTION('',(0.,0.,1.));
#1106=DIRECTION('',(1.,0.,0.));
#1107=DIRECTION('',(0.,0.,1.));
#1108=DIRECTION('',(1.,0.,0.));
#1109=DIRECTION('',(0.,0.,-1.));
#1110=DIRECTION('',(-1.,0.,0.));
#1111=CARTESIAN_POINT('',(0.,0.,0.));
#1112=CARTESIAN_POINT('',(40.,37.75,30.));
#1113=CARTESIAN_POINT('',(40.,30.25,2.5));
#1114=CARTESIAN_POINT('',(40.,38.,2.5));
#1115=CARTESIAN_POINT('',(40.,24.1715728752538,2.5));
#1116=CARTESIAN_POINT('',(40.,24.1715728752538,0.));
#1117=CARTESIAN_POINT('',(40.,24.1715728752538,0.));
#1118=CARTESIAN_POINT('',(40.,37.75,0.));
#1119=CARTESIAN_POINT('',(40.,-24.1715728752538,0.));
#1120=CARTESIAN_POINT('',(40.,-24.1715728752538,2.5));
#1121=CARTESIAN_POINT('',(40.,-24.1715728752538,2.5));
#1122=CARTESIAN_POINT('',(40.,-32.5,2.5));
#1123=CARTESIAN_POINT('',(40.,-38.,2.5));
#1124=CARTESIAN_POINT('',(40.,-38.,30.));
#1125=CARTESIAN_POINT('',(40.,-38.,30.));
#1126=CARTESIAN_POINT('',(40.,37.75,30.));
#1127=CARTESIAN_POINT('',(40.,38.,30.));
#1128=CARTESIAN_POINT('',(40.,38.,30.));
#1129=CARTESIAN_POINT('',(32.5,-40.,30.));
#1130=CARTESIAN_POINT('',(32.5,-40.,0.));
#1131=CARTESIAN_POINT('',(24.1715728752538,-40.,0.));
#1132=CARTESIAN_POINT('',(-24.1715728752538,-40.,0.));
#1133=CARTESIAN_POINT('',(-24.1715728752538,-40.,30.));
#1134=CARTESIAN_POINT('',(-24.1715728752538,-40.,2.5));
#1135=CARTESIAN_POINT('',(-30.25,-40.,2.5));
#1136=CARTESIAN_POINT('',(-38.,-40.,2.5));
#1137=CARTESIAN_POINT('',(-38.,-40.,30.));
#1138=CARTESIAN_POINT('',(-38.,-40.,30.));
#1139=CARTESIAN_POINT('',(32.5,-40.,30.));
#1140=CARTESIAN_POINT('',(38.,-40.,30.));
#1141=CARTESIAN_POINT('',(38.,-40.,2.5));
#1142=CARTESIAN_POINT('',(38.,-40.,2.5));
#1143=CARTESIAN_POINT('',(32.5,-40.,2.5));
#1144=CARTESIAN_POINT('',(24.1715728752538,-40.,2.5));
#1145=CARTESIAN_POINT('',(24.1715728752538,-40.,0.));
#1146=CARTESIAN_POINT('',(50.,6.93889390390723E-15,30.));
#1147=CARTESIAN_POINT('',(50.,6.93889390390723E-15,30.));
#1148=CARTESIAN_POINT('',(50.,45.,30.));
#1149=CARTESIAN_POINT('',(50.,-47.5917999432395,30.));
#1150=CARTESIAN_POINT('',(50.,-47.5917999432395,0.));
#1151=CARTESIAN_POINT('',(50.,-47.5917999432395,0.));
#1152=CARTESIAN_POINT('',(50.,6.93889390390723E-15,0.));
#1153=CARTESIAN_POINT('',(50.,45.,0.));
#1154=CARTESIAN_POINT('',(50.,45.,30.));
#1155=CARTESIAN_POINT('',(-1.38777878078145E-14,50.,30.));
#1156=CARTESIAN_POINT('',(-1.38777878078145E-14,50.,30.));
#1157=CARTESIAN_POINT('',(45.,50.,30.));
#1158=CARTESIAN_POINT('',(-45.,50.,30.));
#1159=CARTESIAN_POINT('',(45.,50.,0.));
#1160=CARTESIAN_POINT('',(45.,50.,0.));
#1161=CARTESIAN_POINT('',(-1.38777878078145E-14,50.,0.));
#1162=CARTESIAN_POINT('',(-45.,50.,0.));
#1163=CARTESIAN_POINT('',(-45.,50.,30.));
#1164=CARTESIAN_POINT('',(30.25,40.,30.));
#1165=CARTESIAN_POINT('',(30.25,40.,0.));
#1166=CARTESIAN_POINT('',(24.1715728752538,40.,0.));
#1167=CARTESIAN_POINT('',(-24.1715728752538,40.,0.));
#1168=CARTESIAN_POINT('',(24.1715728752538,40.,30.));
#1169=CARTESIAN_POINT('',(24.1715728752538,40.,2.5));
#1170=CARTESIAN_POINT('',(30.25,40.,2.5));
#1171=CARTESIAN_POINT('',(38.,40.,2.5));
#1172=CARTESIAN_POINT('',(38.,40.,30.));
#1173=CARTESIAN_POINT('',(38.,40.,30.));
#1174=CARTESIAN_POINT('',(30.25,40.,30.));
#1175=CARTESIAN_POINT('',(-38.,40.,30.));
#1176=CARTESIAN_POINT('',(-38.,40.,2.5));
#1177=CARTESIAN_POINT('',(-38.,40.,2.5));
#1178=CARTESIAN_POINT('',(-32.5,40.,2.5));
#1179=CARTESIAN_POINT('',(-24.1715728752538,40.,2.5));
#1180=CARTESIAN_POINT('',(-24.1715728752538,40.,30.));
#1181=CARTESIAN_POINT('',(-40.,-37.75,30.));
#1182=CARTESIAN_POINT('',(-40.,-30.25,2.5));
#1183=CARTESIAN_POINT('',(-40.,-24.1715728752538,2.5));
#1184=CARTESIAN_POINT('',(-40.,-38.,2.5));
#1185=CARTESIAN_POINT('',(-40.,-24.1715728752538,0.));
#1186=CARTESIAN_POINT('',(-40.,-24.1715728752538,0.));
#1187=CARTESIAN_POINT('',(-40.,-37.75,0.));
#1188=CARTESIAN_POINT('',(-40.,24.1715728752538,0.));
#1189=CARTESIAN_POINT('',(-40.,24.1715728752538,30.));
#1190=CARTESIAN_POINT('',(-40.,24.1715728752538,2.5));
#1191=CARTESIAN_POINT('',(-40.,32.5,2.5));
#1192=CARTESIAN_POINT('',(-40.,38.,2.5));
#1193=CARTESIAN_POINT('',(-40.,38.,30.));
#1194=CARTESIAN_POINT('',(-40.,38.,30.));
#1195=CARTESIAN_POINT('',(-40.,-37.75,30.));
#1196=CARTESIAN_POINT('',(-40.,-38.,30.));
#1197=CARTESIAN_POINT('',(-40.,-38.,30.));
#1198=CARTESIAN_POINT('',(-50.,-6.93889390390723E-15,30.));
#1199=CARTESIAN_POINT('',(-50.,-6.93889390390723E-15,0.));
#1200=CARTESIAN_POINT('',(-50.,45.,0.));
#1201=CARTESIAN_POINT('',(-50.,-47.5917999432395,0.));
#1202=CARTESIAN_POINT('',(-50.,-47.5917999432395,30.));
#1203=CARTESIAN_POINT('',(-50.,-47.5917999432395,30.));
#1204=CARTESIAN_POINT('',(-50.,-6.93889390390723E-15,30.));
#1205=CARTESIAN_POINT('',(-50.,45.,30.));
#1206=CARTESIAN_POINT('',(-50.,45.,30.));
#1207=CARTESIAN_POINT('',(0.,-7.42279067635537,30.));
#1208=CARTESIAN_POINT('',(38.,38.,30.));
#1209=CARTESIAN_POINT('',(38.,-38.,30.));
#1210=CARTESIAN_POINT('',(-38.,-38.,30.));
#1211=CARTESIAN_POINT('',(-38.,38.,30.));
#1212=CARTESIAN_POINT('',(45.,45.,30.));
#1213=CARTESIAN_POINT('',(-45.,45.,30.));
#1214=CARTESIAN_POINT('',(-55.,-47.5917999432395,30.));
#1215=CARTESIAN_POINT('',(-51.8829660099564,-51.5012882863495,30.));
#1216=CARTESIAN_POINT('',(-59.3099124729633,-57.4227906763554,30.));
#1217=CARTESIAN_POINT('',(-68.6198249459267,-64.8455813527107,30.));
#1218=CARTESIAN_POINT('',(0.,-64.8455813527107,30.));
#1219=CARTESIAN_POINT('',(68.6198249459267,-64.8455813527107,30.));
#1220=CARTESIAN_POINT('',(59.3099124729633,-57.4227906763554,30.));
#1221=CARTESIAN_POINT('',(51.8829660099565,-51.5012882863495,30.));
#1222=CARTESIAN_POINT('',(55.,-47.5917999432395,30.));
#1223=CARTESIAN_POINT('',(0.,-7.42279067635537,0.));
#1224=CARTESIAN_POINT('',(32.5,32.5,0.));
#1225=CARTESIAN_POINT('',(25.5857864376269,39.4142135623731,0.));
#1226=CARTESIAN_POINT('',(39.4142135623731,25.5857864376269,0.));
#1227=CARTESIAN_POINT('',(24.1715728752538,38.,0.));
#1228=CARTESIAN_POINT('',(-24.1715728752538,38.,0.));
#1229=CARTESIAN_POINT('',(-25.5857864376269,39.4142135623731,0.));
#1230=CARTESIAN_POINT('',(-32.5,32.5,0.));
#1231=CARTESIAN_POINT('',(-39.4142135623731,25.5857864376269,0.));
#1232=CARTESIAN_POINT('',(-38.,24.1715728752538,0.));
#1233=CARTESIAN_POINT('',(-38.,-24.1715728752538,0.));
#1234=CARTESIAN_POINT('',(-39.4142135623731,-25.5857864376269,0.));
#1235=CARTESIAN_POINT('',(-32.5,-32.5,0.));
#1236=CARTESIAN_POINT('',(-25.5857864376269,-39.4142135623731,0.));
#1237=CARTESIAN_POINT('',(-24.1715728752538,-38.,0.));
#1238=CARTESIAN_POINT('',(24.1715728752538,-38.,0.));
#1239=CARTESIAN_POINT('',(25.5857864376269,-39.4142135623731,0.));
#1240=CARTESIAN_POINT('',(32.5,-32.5,0.));
#1241=CARTESIAN_POINT('',(39.4142135623731,-25.5857864376269,0.));
#1242=CARTESIAN_POINT('',(38.,-24.1715728752538,0.));
#1243=CARTESIAN_POINT('',(38.,24.1715728752538,0.));
#1244=CARTESIAN_POINT('',(45.,45.,0.));
#1245=CARTESIAN_POINT('',(55.,-47.5917999432395,0.));
#1246=CARTESIAN_POINT('',(51.8829660099565,-51.5012882863495,0.));
#1247=CARTESIAN_POINT('',(59.3099124729633,-57.4227906763554,0.));
#1248=CARTESIAN_POINT('',(68.6198249459267,-64.8455813527107,0.));
#1249=CARTESIAN_POINT('',(0.,-64.8455813527107,0.));
#1250=CARTESIAN_POINT('',(-68.6198249459267,-64.8455813527107,0.));
#1251=CARTESIAN_POINT('',(-59.3099124729633,-57.4227906763554,0.));
#1252=CARTESIAN_POINT('',(-51.8829660099564,-51.5012882863495,0.));
#1253=CARTESIAN_POINT('',(-55.,-47.5917999432395,0.));
#1254=CARTESIAN_POINT('',(-45.,45.,0.));
#1255=CARTESIAN_POINT('',(-35.5,-35.5,0.));
#1256=CARTESIAN_POINT('',(-34.,-35.5,0.));
#1257=CARTESIAN_POINT('',(-35.5,35.5,0.));
#1258=CARTESIAN_POINT('',(-34.,35.5,0.));
#1259=CARTESIAN_POINT('',(35.5,-35.5,0.));
#1260=CARTESIAN_POINT('',(37.,-35.5,0.));
#1261=CARTESIAN_POINT('',(35.5,35.5,0.));
#1262=CARTESIAN_POINT('',(37.,35.5,0.));
#1263=CARTESIAN_POINT('',(0.,-64.8455813527107,30.));
#1264=CARTESIAN_POINT('',(68.6198249459267,-64.8455813527107,30.));
#1265=CARTESIAN_POINT('',(-68.6198249459267,-64.8455813527107,30.));
#1266=CARTESIAN_POINT('',(59.3099124729633,-57.4227906763554,30.));
#1267=CARTESIAN_POINT('',(51.8829660099565,-51.5012882863495,30.));
#1268=CARTESIAN_POINT('',(-59.3099124729633,-57.4227906763554,30.));
#1269=CARTESIAN_POINT('',(-51.8829660099564,-51.5012882863495,0.));
#1270=CARTESIAN_POINT('',(-32.5,-32.5,2.5));
#1271=CARTESIAN_POINT('',(-32.5,-32.5,2.5));
#1272=CARTESIAN_POINT('',(-39.4142135623731,-25.5857864376269,2.5));
#1273=CARTESIAN_POINT('',(-25.5857864376269,-39.4142135623731,2.5));
#1274=CARTESIAN_POINT('',(-25.5857864376269,-39.4142135623731,2.5));
#1275=CARTESIAN_POINT('',(-39.4142135623731,-25.5857864376269,2.5));
#1276=CARTESIAN_POINT('',(-35.5,-35.5,2.5));
#1277=CARTESIAN_POINT('',(-35.5,-35.5,2.5));
#1278=CARTESIAN_POINT('',(-34.,-35.5,2.5));
#1279=CARTESIAN_POINT('',(0.,-7.42279067635537,2.5));
#1280=CARTESIAN_POINT('',(-38.,-38.,2.5));
#1281=CARTESIAN_POINT('',(-24.1715728752538,-38.,2.5));
#1282=CARTESIAN_POINT('',(-38.,-24.1715728752538,2.5));
#1283=CARTESIAN_POINT('',(-32.5,32.5,2.5));
#1284=CARTESIAN_POINT('',(-25.5857864376269,39.4142135623731,2.5));
#1285=CARTESIAN_POINT('',(-25.5857864376269,39.4142135623731,2.5));
#1286=CARTESIAN_POINT('',(-32.5,32.5,2.5));
#1287=CARTESIAN_POINT('',(-39.4142135623731,25.5857864376269,2.5));
#1288=CARTESIAN_POINT('',(-39.4142135623731,25.5857864376269,2.5));
#1289=CARTESIAN_POINT('',(-35.5,35.5,2.5));
#1290=CARTESIAN_POINT('',(-35.5,35.5,2.5));
#1291=CARTESIAN_POINT('',(-34.,35.5,2.5));
#1292=CARTESIAN_POINT('',(0.,-7.42279067635537,2.5));
#1293=CARTESIAN_POINT('',(-38.,38.,2.5));
#1294=CARTESIAN_POINT('',(-38.,24.1715728752538,2.5));
#1295=CARTESIAN_POINT('',(-24.1715728752538,38.,2.5));
#1296=CARTESIAN_POINT('',(32.5,-32.5,2.5));
#1297=CARTESIAN_POINT('',(32.5,-32.5,2.5));
#1298=CARTESIAN_POINT('',(39.4142135623731,-25.5857864376269,2.5));
#1299=CARTESIAN_POINT('',(25.5857864376269,-39.4142135623731,2.5));
#1300=CARTESIAN_POINT('',(39.4142135623731,-25.5857864376269,0.));
#1301=CARTESIAN_POINT('',(25.5857864376269,-39.4142135623731,2.5));
#1302=CARTESIAN_POINT('',(35.5,-35.5,2.5));
#1303=CARTESIAN_POINT('',(35.5,-35.5,2.5));
#1304=CARTESIAN_POINT('',(37.,-35.5,2.5));
#1305=CARTESIAN_POINT('',(0.,-7.42279067635537,2.5));
#1306=CARTESIAN_POINT('',(38.,-38.,2.5));
#1307=CARTESIAN_POINT('',(38.,-24.1715728752538,2.5));
#1308=CARTESIAN_POINT('',(24.1715728752538,-38.,2.5));
#1309=CARTESIAN_POINT('',(32.5,32.5,2.5));
#1310=CARTESIAN_POINT('',(39.4142135623731,25.5857864376269,2.5));
#1311=CARTESIAN_POINT('',(39.4142135623731,25.5857864376269,2.5));
#1312=CARTESIAN_POINT('',(32.5,32.5,2.5));
#1313=CARTESIAN_POINT('',(25.5857864376269,39.4142135623731,2.5));
#1314=CARTESIAN_POINT('',(25.5857864376269,39.4142135623731,2.5));
#1315=CARTESIAN_POINT('',(35.5,35.5,2.5));
#1316=CARTESIAN_POINT('',(35.5,35.5,2.5));
#1317=CARTESIAN_POINT('',(37.,35.5,2.5));
#1318=CARTESIAN_POINT('',(0.,-7.42279067635537,2.5));
#1319=CARTESIAN_POINT('',(38.,38.,2.5));
#1320=CARTESIAN_POINT('',(24.1715728752538,38.,2.5));
#1321=CARTESIAN_POINT('',(38.,24.1715728752538,2.5));
#1322=CARTESIAN_POINT('',(38.,24.1715728752538,30.));
#1323=CARTESIAN_POINT('',(24.1715728752538,38.,2.5));
#1324=CARTESIAN_POINT('',(38.,38.,30.));
#1325=CARTESIAN_POINT('',(38.,-24.1715728752538,2.5));
#1326=CARTESIAN_POINT('',(24.1715728752538,-38.,30.));
#1327=CARTESIAN_POINT('',(38.,-38.,30.));
#1328=CARTESIAN_POINT('',(-38.,-38.,30.));
#1329=CARTESIAN_POINT('',(-24.1715728752538,38.,30.));
#1330=CARTESIAN_POINT('',(-38.,24.1715728752538,2.5));
#1331=CARTESIAN_POINT('',(-38.,38.,30.));
#1332=CARTESIAN_POINT('',(-24.1715728752538,-38.,2.5));
#1333=CARTESIAN_POINT('',(-38.,-24.1715728752538,30.));
#1334=CARTESIAN_POINT('',(55.,-47.5917999432395,30.));
#1335=CARTESIAN_POINT('',(-55.,-47.5917999432395,30.));
#1336=CARTESIAN_POINT('',(45.,45.,30.));
#1337=CARTESIAN_POINT('',(-45.,45.,30.));
#1338=MECHANICAL_DESIGN_GEOMETRIC_PRESENTATION_REPRESENTATION('',(#787),
#1339);
#1339=(
GEOMETRIC_REPRESENTATION_CONTEXT(3)
GLOBAL_UNCERTAINTY_ASSIGNED_CONTEXT((#1340))
GLOBAL_UNIT_ASSIGNED_CONTEXT((#1343,#1342,#1341))
REPRESENTATION_CONTEXT('Part 1','TOP_LEVEL_ASSEMBLY_PART')
);
#1340=UNCERTAINTY_MEASURE_WITH_UNIT(LENGTH_MEASURE(1.E-5),#1343,
'DISTANCE_ACCURACY_VALUE','Maximum Tolerance applied to model');
#1341=(
NAMED_UNIT(*)
SI_UNIT($,.STERADIAN.)
SOLID_ANGLE_UNIT()
);
#1342=(
NAMED_UNIT(*)
PLANE_ANGLE_UNIT()
SI_UNIT($,.RADIAN.)
);
#1343=(
LENGTH_UNIT()
NAMED_UNIT(*)
SI_UNIT(.MILLI.,.METRE.)
);
#1344=PRODUCT_DEFINITION_SHAPE('','',#1345);
#1345=PRODUCT_DEFINITION('','',#1347,#1346);
#1346=PRODUCT_DEFINITION_CONTEXT('',#1353,'design');
#1347=PRODUCT_DEFINITION_FORMATION_WITH_SPECIFIED_SOURCE('','',#1349,
 .NOT_KNOWN.);
#1348=PRODUCT_RELATED_PRODUCT_CATEGORY('','',(#1349));
#1349=PRODUCT('Part 1','Part 1','Part 1',(#1351));
#1350=PRODUCT_CATEGORY('','');
#1351=PRODUCT_CONTEXT('',#1353,'mechanical');
#1352=APPLICATION_PROTOCOL_DEFINITION('international standard',
'ap242_managed_model_based_3d_engineering',2020,#1353);
#1353=APPLICATION_CONTEXT('managed model based 3d engineering');
ENDSEC;
END-ISO-10303-21;
