ISO-10303-21;
HEADER;
/* Generated by software containing ST-Developer
 * from STEP Tools, Inc. (www.steptools.com) 
 */
/* OPTION: using custom renumber hook */

FILE_DESCRIPTION(
/* description */ ('STEP AP242 Edition 2',
'CAx-IF Rec.Pracs.---Representation and Presentation of Product Manufa
cturing Information (PMI)---4.0---2014-10-13',
'CAx-IF Rec.Pracs.---3D Tessellated Geometry---0.4---2014-09-14','2;1',
'CAx-IF Rec.Pracs.---User Defined Attributes---1.5---2016-08-15'),
/* implementation_level */ '2;1');

FILE_NAME(
/* name */ '698c9b2466aa843694ab7693',
/* time_stamp */ '2026-02-11T15:07:17Z',
/* author */ (''),
/* organization */ (''),
/* preprocessor_version */ 'ST-DEVELOPER v20',
/* originating_system */ 'ONSHAPE BY PTC INC, 1.210',
/* authorisation */ '  ');

FILE_SCHEMA (('AP242_MANAGED_MODEL_BASED_3D_ENGINEERING_MIM_LF { 1 0 10303 442 3 1 4 }'));
ENDSEC;

DATA;
#10=SHAPE_REPRESENTATION_RELATIONSHIP('','',#323,#11);
#11=ADVANCED_BREP_SHAPE_REPRESENTATION('',(#321),#517);
#12=CIRCLE('',#329,1.5);
#13=CIRCLE('',#330,1.5);
#14=CIRCLE('',#338,1.5);
#15=CIRCLE('',#339,1.5);
#16=CIRCLE('',#341,1.5);
#17=CIRCLE('',#342,1.5);
#18=CIRCLE('',#345,1.5);
#19=CIRCLE('',#346,1.5);
#20=CYLINDRICAL_SURFACE('',#328,1.5);
#21=CYLINDRICAL_SURFACE('',#337,1.5);
#22=CYLINDRICAL_SURFACE('',#340,1.5);
#23=CYLINDRICAL_SURFACE('',#344,1.5);
#24=ORIENTED_EDGE('',*,*,#104,.T.);
#25=ORIENTED_EDGE('',*,*,#105,.F.);
#26=ORIENTED_EDGE('',*,*,#106,.F.);
#27=ORIENTED_EDGE('',*,*,#107,.T.);
#28=ORIENTED_EDGE('',*,*,#108,.F.);
#29=ORIENTED_EDGE('',*,*,#109,.F.);
#30=ORIENTED_EDGE('',*,*,#110,.T.);
#31=ORIENTED_EDGE('',*,*,#105,.T.);
#32=ORIENTED_EDGE('',*,*,#111,.F.);
#33=ORIENTED_EDGE('',*,*,#112,.F.);
#34=ORIENTED_EDGE('',*,*,#113,.T.);
#35=ORIENTED_EDGE('',*,*,#109,.T.);
#36=ORIENTED_EDGE('',*,*,#114,.F.);
#37=ORIENTED_EDGE('',*,*,#115,.F.);
#38=ORIENTED_EDGE('',*,*,#116,.T.);
#39=ORIENTED_EDGE('',*,*,#112,.T.);
#40=ORIENTED_EDGE('',*,*,#117,.T.);
#41=ORIENTED_EDGE('',*,*,#118,.F.);
#42=ORIENTED_EDGE('',*,*,#119,.F.);
#43=ORIENTED_EDGE('',*,*,#115,.T.);
#44=ORIENTED_EDGE('',*,*,#120,.T.);
#45=ORIENTED_EDGE('',*,*,#121,.F.);
#46=ORIENTED_EDGE('',*,*,#122,.F.);
#47=ORIENTED_EDGE('',*,*,#118,.T.);
#48=ORIENTED_EDGE('',*,*,#123,.F.);
#49=ORIENTED_EDGE('',*,*,#124,.F.);
#50=ORIENTED_EDGE('',*,*,#125,.T.);
#51=ORIENTED_EDGE('',*,*,#121,.T.);
#52=ORIENTED_EDGE('',*,*,#126,.F.);
#53=ORIENTED_EDGE('',*,*,#127,.F.);
#54=ORIENTED_EDGE('',*,*,#128,.T.);
#55=ORIENTED_EDGE('',*,*,#129,.T.);
#56=ORIENTED_EDGE('',*,*,#130,.F.);
#57=ORIENTED_EDGE('',*,*,#131,.F.);
#58=ORIENTED_EDGE('',*,*,#132,.T.);
#59=ORIENTED_EDGE('',*,*,#127,.T.);
#60=ORIENTED_EDGE('',*,*,#133,.T.);
#61=ORIENTED_EDGE('',*,*,#134,.F.);
#62=ORIENTED_EDGE('',*,*,#135,.F.);
#63=ORIENTED_EDGE('',*,*,#131,.T.);
#64=ORIENTED_EDGE('',*,*,#136,.T.);
#65=ORIENTED_EDGE('',*,*,#137,.F.);
#66=ORIENTED_EDGE('',*,*,#138,.F.);
#67=ORIENTED_EDGE('',*,*,#107,.F.);
#68=ORIENTED_EDGE('',*,*,#139,.T.);
#69=ORIENTED_EDGE('',*,*,#124,.T.);
#70=ORIENTED_EDGE('',*,*,#140,.T.);
#71=ORIENTED_EDGE('',*,*,#129,.F.);
#72=ORIENTED_EDGE('',*,*,#141,.F.);
#73=ORIENTED_EDGE('',*,*,#134,.T.);
#74=ORIENTED_EDGE('',*,*,#142,.T.);
#75=ORIENTED_EDGE('',*,*,#143,.F.);
#76=ORIENTED_EDGE('',*,*,#128,.F.);
#77=ORIENTED_EDGE('',*,*,#132,.F.);
#78=ORIENTED_EDGE('',*,*,#135,.T.);
#79=ORIENTED_EDGE('',*,*,#141,.T.);
#80=ORIENTED_EDGE('',*,*,#106,.T.);
#81=ORIENTED_EDGE('',*,*,#110,.F.);
#82=ORIENTED_EDGE('',*,*,#113,.F.);
#83=ORIENTED_EDGE('',*,*,#116,.F.);
#84=ORIENTED_EDGE('',*,*,#119,.T.);
#85=ORIENTED_EDGE('',*,*,#122,.T.);
#86=ORIENTED_EDGE('',*,*,#125,.F.);
#87=ORIENTED_EDGE('',*,*,#139,.F.);
#88=ORIENTED_EDGE('',*,*,#136,.F.);
#89=ORIENTED_EDGE('',*,*,#142,.F.);
#90=ORIENTED_EDGE('',*,*,#126,.T.);
#91=ORIENTED_EDGE('',*,*,#140,.F.);
#92=ORIENTED_EDGE('',*,*,#133,.F.);
#93=ORIENTED_EDGE('',*,*,#130,.T.);
#94=ORIENTED_EDGE('',*,*,#104,.F.);
#95=ORIENTED_EDGE('',*,*,#138,.T.);
#96=ORIENTED_EDGE('',*,*,#123,.T.);
#97=ORIENTED_EDGE('',*,*,#120,.F.);
#98=ORIENTED_EDGE('',*,*,#117,.F.);
#99=ORIENTED_EDGE('',*,*,#114,.T.);
#100=ORIENTED_EDGE('',*,*,#111,.T.);
#101=ORIENTED_EDGE('',*,*,#108,.T.);
#102=ORIENTED_EDGE('',*,*,#137,.T.);
#103=ORIENTED_EDGE('',*,*,#143,.T.);
#104=EDGE_CURVE('',#144,#145,#172,.T.);
#105=EDGE_CURVE('',#146,#145,#173,.T.);
#106=EDGE_CURVE('',#147,#146,#174,.T.);
#107=EDGE_CURVE('',#147,#144,#175,.T.);
#108=EDGE_CURVE('',#148,#145,#176,.T.);
#109=EDGE_CURVE('',#149,#148,#177,.T.);
#110=EDGE_CURVE('',#149,#146,#178,.T.);
#111=EDGE_CURVE('',#150,#148,#179,.T.);
#112=EDGE_CURVE('',#151,#150,#180,.T.);
#113=EDGE_CURVE('',#151,#149,#181,.T.);
#114=EDGE_CURVE('',#152,#150,#12,.T.);
#115=EDGE_CURVE('',#153,#152,#182,.T.);
#116=EDGE_CURVE('',#153,#151,#13,.T.);
#117=EDGE_CURVE('',#152,#154,#183,.T.);
#118=EDGE_CURVE('',#155,#154,#184,.T.);
#119=EDGE_CURVE('',#153,#155,#185,.T.);
#120=EDGE_CURVE('',#154,#156,#186,.T.);
#121=EDGE_CURVE('',#157,#156,#187,.T.);
#122=EDGE_CURVE('',#155,#157,#188,.T.);
#123=EDGE_CURVE('',#158,#156,#189,.T.);
#124=EDGE_CURVE('',#159,#158,#190,.T.);
#125=EDGE_CURVE('',#159,#157,#191,.T.);
#126=EDGE_CURVE('',#160,#161,#192,.T.);
#127=EDGE_CURVE('',#162,#160,#193,.T.);
#128=EDGE_CURVE('',#162,#163,#194,.T.);
#129=EDGE_CURVE('',#163,#161,#195,.T.);
#130=EDGE_CURVE('',#164,#160,#196,.T.);
#131=EDGE_CURVE('',#165,#164,#197,.T.);
#132=EDGE_CURVE('',#165,#162,#198,.T.);
#133=EDGE_CURVE('',#164,#166,#199,.T.);
#134=EDGE_CURVE('',#167,#166,#200,.T.);
#135=EDGE_CURVE('',#165,#167,#201,.T.);
#136=EDGE_CURVE('',#168,#168,#14,.T.);
#137=EDGE_CURVE('',#169,#169,#15,.T.);
#138=EDGE_CURVE('',#144,#158,#16,.T.);
#139=EDGE_CURVE('',#147,#159,#17,.T.);
#140=EDGE_CURVE('',#166,#161,#202,.T.);
#141=EDGE_CURVE('',#167,#163,#203,.T.);
#142=EDGE_CURVE('',#170,#170,#18,.T.);
#143=EDGE_CURVE('',#171,#171,#19,.T.);
#144=VERTEX_POINT('',#434);
#145=VERTEX_POINT('',#435);
#146=VERTEX_POINT('',#437);
#147=VERTEX_POINT('',#439);
#148=VERTEX_POINT('',#443);
#149=VERTEX_POINT('',#445);
#150=VERTEX_POINT('',#449);
#151=VERTEX_POINT('',#451);
#152=VERTEX_POINT('',#455);
#153=VERTEX_POINT('',#457);
#154=VERTEX_POINT('',#461);
#155=VERTEX_POINT('',#463);
#156=VERTEX_POINT('',#467);
#157=VERTEX_POINT('',#469);
#158=VERTEX_POINT('',#473);
#159=VERTEX_POINT('',#475);
#160=VERTEX_POINT('',#479);
#161=VERTEX_POINT('',#480);
#162=VERTEX_POINT('',#482);
#163=VERTEX_POINT('',#484);
#164=VERTEX_POINT('',#488);
#165=VERTEX_POINT('',#490);
#166=VERTEX_POINT('',#494);
#167=VERTEX_POINT('',#496);
#168=VERTEX_POINT('',#500);
#169=VERTEX_POINT('',#502);
#170=VERTEX_POINT('',#511);
#171=VERTEX_POINT('',#513);
#172=LINE('',#433,#204);
#173=LINE('',#436,#205);
#174=LINE('',#438,#206);
#175=LINE('',#440,#207);
#176=LINE('',#442,#208);
#177=LINE('',#444,#209);
#178=LINE('',#446,#210);
#179=LINE('',#448,#211);
#180=LINE('',#450,#212);
#181=LINE('',#452,#213);
#182=LINE('',#456,#214);
#183=LINE('',#460,#215);
#184=LINE('',#462,#216);
#185=LINE('',#464,#217);
#186=LINE('',#466,#218);
#187=LINE('',#468,#219);
#188=LINE('',#470,#220);
#189=LINE('',#472,#221);
#190=LINE('',#474,#222);
#191=LINE('',#476,#223);
#192=LINE('',#478,#224);
#193=LINE('',#481,#225);
#194=LINE('',#483,#226);
#195=LINE('',#485,#227);
#196=LINE('',#487,#228);
#197=LINE('',#489,#229);
#198=LINE('',#491,#230);
#199=LINE('',#493,#231);
#200=LINE('',#495,#232);
#201=LINE('',#497,#233);
#202=LINE('',#507,#234);
#203=LINE('',#508,#235);
#204=VECTOR('',#353,1000.);
#205=VECTOR('',#354,1000.);
#206=VECTOR('',#355,1000.);
#207=VECTOR('',#356,1000.);
#208=VECTOR('',#359,1000.);
#209=VECTOR('',#360,1000.);
#210=VECTOR('',#361,1000.);
#211=VECTOR('',#364,1000.);
#212=VECTOR('',#365,1000.);
#213=VECTOR('',#366,1000.);
#214=VECTOR('',#371,1000.);
#215=VECTOR('',#376,1000.);
#216=VECTOR('',#377,1000.);
#217=VECTOR('',#378,1000.);
#218=VECTOR('',#381,1000.);
#219=VECTOR('',#382,1000.);
#220=VECTOR('',#383,1000.);
#221=VECTOR('',#386,1000.);
#222=VECTOR('',#387,1000.);
#223=VECTOR('',#388,1000.);
#224=VECTOR('',#391,1000.);
#225=VECTOR('',#392,1000.);
#226=VECTOR('',#393,1000.);
#227=VECTOR('',#394,1000.);
#228=VECTOR('',#397,1000.);
#229=VECTOR('',#398,1000.);
#230=VECTOR('',#399,1000.);
#231=VECTOR('',#402,1000.);
#232=VECTOR('',#403,1000.);
#233=VECTOR('',#404,1000.);
#234=VECTOR('',#419,1000.);
#235=VECTOR('',#420,1000.);
#236=EDGE_LOOP('',(#24,#25,#26,#27));
#237=EDGE_LOOP('',(#28,#29,#30,#31));
#238=EDGE_LOOP('',(#32,#33,#34,#35));
#239=EDGE_LOOP('',(#36,#37,#38,#39));
#240=EDGE_LOOP('',(#40,#41,#42,#43));
#241=EDGE_LOOP('',(#44,#45,#46,#47));
#242=EDGE_LOOP('',(#48,#49,#50,#51));
#243=EDGE_LOOP('',(#52,#53,#54,#55));
#244=EDGE_LOOP('',(#56,#57,#58,#59));
#245=EDGE_LOOP('',(#60,#61,#62,#63));
#246=EDGE_LOOP('',(#64));
#247=EDGE_LOOP('',(#65));
#248=EDGE_LOOP('',(#66,#67,#68,#69));
#249=EDGE_LOOP('',(#70,#71,#72,#73));
#250=EDGE_LOOP('',(#74));
#251=EDGE_LOOP('',(#75));
#252=EDGE_LOOP('',(#76,#77,#78,#79));
#253=EDGE_LOOP('',(#80,#81,#82,#83,#84,#85,#86,#87));
#254=EDGE_LOOP('',(#88));
#255=EDGE_LOOP('',(#89));
#256=EDGE_LOOP('',(#90,#91,#92,#93));
#257=EDGE_LOOP('',(#94,#95,#96,#97,#98,#99,#100,#101));
#258=EDGE_LOOP('',(#102));
#259=EDGE_LOOP('',(#103));
#260=FACE_BOUND('',#236,.T.);
#261=FACE_BOUND('',#237,.T.);
#262=FACE_BOUND('',#238,.T.);
#263=FACE_BOUND('',#239,.T.);
#264=FACE_BOUND('',#240,.T.);
#265=FACE_BOUND('',#241,.T.);
#266=FACE_BOUND('',#242,.T.);
#267=FACE_BOUND('',#243,.T.);
#268=FACE_BOUND('',#244,.T.);
#269=FACE_BOUND('',#245,.T.);
#270=FACE_BOUND('',#246,.T.);
#271=FACE_BOUND('',#247,.T.);
#272=FACE_BOUND('',#248,.T.);
#273=FACE_BOUND('',#249,.T.);
#274=FACE_BOUND('',#250,.T.);
#275=FACE_BOUND('',#251,.T.);
#276=FACE_BOUND('',#252,.T.);
#277=FACE_BOUND('',#253,.T.);
#278=FACE_BOUND('',#254,.T.);
#279=FACE_BOUND('',#255,.T.);
#280=FACE_BOUND('',#256,.T.);
#281=FACE_BOUND('',#257,.T.);
#282=FACE_BOUND('',#258,.T.);
#283=FACE_BOUND('',#259,.T.);
#284=PLANE('',#325);
#285=PLANE('',#326);
#286=PLANE('',#327);
#287=PLANE('',#331);
#288=PLANE('',#332);
#289=PLANE('',#333);
#290=PLANE('',#334);
#291=PLANE('',#335);
#292=PLANE('',#336);
#293=PLANE('',#343);
#294=PLANE('',#347);
#295=PLANE('',#348);
#296=ADVANCED_FACE('',(#260),#284,.F.);
#297=ADVANCED_FACE('',(#261),#285,.T.);
#298=ADVANCED_FACE('',(#262),#286,.T.);
#299=ADVANCED_FACE('',(#263),#20,.F.);
#300=ADVANCED_FACE('',(#264),#287,.F.);
#301=ADVANCED_FACE('',(#265),#288,.F.);
#302=ADVANCED_FACE('',(#266),#289,.T.);
#303=ADVANCED_FACE('',(#267),#290,.T.);
#304=ADVANCED_FACE('',(#268),#291,.T.);
#305=ADVANCED_FACE('',(#269),#292,.F.);
#306=ADVANCED_FACE('',(#270,#271),#21,.F.);
#307=ADVANCED_FACE('',(#272),#22,.F.);
#308=ADVANCED_FACE('',(#273),#293,.F.);
#309=ADVANCED_FACE('',(#274,#275),#23,.F.);
#310=ADVANCED_FACE('',(#276,#277,#278,#279),#294,.T.);
#311=ADVANCED_FACE('',(#280,#281,#282,#283),#295,.F.);
#312=CLOSED_SHELL('',(#296,#297,#298,#299,#300,#301,#302,#303,#304,#305,
#306,#307,#308,#309,#310,#311));
#313=STYLED_ITEM('',(#314),#321);
#314=PRESENTATION_STYLE_ASSIGNMENT((#315));
#315=SURFACE_STYLE_USAGE(.BOTH.,#316);
#316=SURFACE_SIDE_STYLE('',(#317));
#317=SURFACE_STYLE_FILL_AREA(#318);
#318=FILL_AREA_STYLE('',(#319));
#319=FILL_AREA_STYLE_COLOUR('',#320);
#320=COLOUR_RGB('',0.615686274509804,0.811764705882353,0.929411764705882);
#321=MANIFOLD_SOLID_BREP('Part 1',#312);
#322=SHAPE_DEFINITION_REPRESENTATION(#522,#323);
#323=SHAPE_REPRESENTATION('Part 1',(#324),#517);
#324=AXIS2_PLACEMENT_3D('',#431,#349,#350);
#325=AXIS2_PLACEMENT_3D('',#432,#351,#352);
#326=AXIS2_PLACEMENT_3D('',#441,#357,#358);
#327=AXIS2_PLACEMENT_3D('',#447,#362,#363);
#328=AXIS2_PLACEMENT_3D('',#453,#367,#368);
#329=AXIS2_PLACEMENT_3D('',#454,#369,#370);
#330=AXIS2_PLACEMENT_3D('',#458,#372,#373);
#331=AXIS2_PLACEMENT_3D('',#459,#374,#375);
#332=AXIS2_PLACEMENT_3D('',#465,#379,#380);
#333=AXIS2_PLACEMENT_3D('',#471,#384,#385);
#334=AXIS2_PLACEMENT_3D('',#477,#389,#390);
#335=AXIS2_PLACEMENT_3D('',#486,#395,#396);
#336=AXIS2_PLACEMENT_3D('',#492,#400,#401);
#337=AXIS2_PLACEMENT_3D('',#498,#405,#406);
#338=AXIS2_PLACEMENT_3D('',#499,#407,#408);
#339=AXIS2_PLACEMENT_3D('',#501,#409,#410);
#340=AXIS2_PLACEMENT_3D('',#503,#411,#412);
#341=AXIS2_PLACEMENT_3D('',#504,#413,#414);
#342=AXIS2_PLACEMENT_3D('',#505,#415,#416);
#343=AXIS2_PLACEMENT_3D('',#506,#417,#418);
#344=AXIS2_PLACEMENT_3D('',#509,#421,#422);
#345=AXIS2_PLACEMENT_3D('',#510,#423,#424);
#346=AXIS2_PLACEMENT_3D('',#512,#425,#426);
#347=AXIS2_PLACEMENT_3D('',#514,#427,#428);
#348=AXIS2_PLACEMENT_3D('',#515,#429,#430);
#349=DIRECTION('',(0.,0.,1.));
#350=DIRECTION('',(1.,0.,0.));
#351=DIRECTION('',(1.63268091856641E-15,-1.,0.));
#352=DIRECTION('',(1.,1.63268091856641E-15,0.));
#353=DIRECTION('',(-1.,-1.63268091856641E-15,0.));
#354=DIRECTION('',(0.,0.,-1.));
#355=DIRECTION('',(-1.,-1.63268091856641E-15,0.));
#356=DIRECTION('',(0.,0.,-1.));
#357=DIRECTION('',(0.707106781186547,0.707106781186548,0.));
#358=DIRECTION('',(-0.707106781186548,0.707106781186548,0.));
#359=DIRECTION('',(0.707106781186548,-0.707106781186548,0.));
#360=DIRECTION('',(0.,0.,-1.));
#361=DIRECTION('',(0.707106781186548,-0.707106781186548,0.));
#362=DIRECTION('',(1.,0.,0.));
#363=DIRECTION('',(0.,0.,-1.));
#364=DIRECTION('',(0.,-1.,0.));
#365=DIRECTION('',(0.,0.,-1.));
#366=DIRECTION('',(0.,-1.,0.));
#367=DIRECTION('',(0.,0.,-1.));
#368=DIRECTION('',(-1.,0.,0.));
#369=DIRECTION('',(0.,0.,1.));
#370=DIRECTION('',(1.,0.,0.));
#371=DIRECTION('',(0.,0.,-1.));
#372=DIRECTION('',(0.,0.,1.));
#373=DIRECTION('',(1.,0.,0.));
#374=DIRECTION('',(0.,1.,0.));
#375=DIRECTION('',(0.,0.,1.));
#376=DIRECTION('',(1.,0.,0.));
#377=DIRECTION('',(0.,0.,-1.));
#378=DIRECTION('',(1.,0.,0.));
#379=DIRECTION('',(0.707247353932317,0.706966180489375,0.));
#380=DIRECTION('',(-0.706966180489376,0.707247353932317,0.));
#381=DIRECTION('',(0.706966180489376,-0.707247353932317,0.));
#382=DIRECTION('',(0.,0.,-1.));
#383=DIRECTION('',(0.706966180489376,-0.707247353932317,0.));
#384=DIRECTION('',(-1.,0.,0.));
#385=DIRECTION('',(0.,0.,1.));
#386=DIRECTION('',(0.,1.,0.));
#387=DIRECTION('',(0.,0.,-1.));
#388=DIRECTION('',(0.,1.,0.));
#389=DIRECTION('',(1.98254111540206E-16,-1.,0.));
#390=DIRECTION('',(1.,1.98254111540206E-16,0.));
#391=DIRECTION('',(-1.,-1.98254111540206E-16,0.));
#392=DIRECTION('',(0.,0.,-1.));
#393=DIRECTION('',(-1.,-1.98254111540206E-16,0.));
#394=DIRECTION('',(0.,0.,-1.));
#395=DIRECTION('',(1.,2.9738116731031E-16,0.));
#396=DIRECTION('',(-2.9738116731031E-16,1.,0.));
#397=DIRECTION('',(2.9738116731031E-16,-1.,0.));
#398=DIRECTION('',(0.,0.,-1.));
#399=DIRECTION('',(2.9738116731031E-16,-1.,0.));
#400=DIRECTION('',(1.98332960843974E-16,-1.,0.));
#401=DIRECTION('',(1.,1.98332960843974E-16,0.));
#402=DIRECTION('',(-1.,-1.98332960843974E-16,0.));
#403=DIRECTION('',(0.,0.,-1.));
#404=DIRECTION('',(-1.,-1.98332960843974E-16,0.));
#405=DIRECTION('',(0.,0.,-1.));
#406=DIRECTION('',(-1.,0.,0.));
#407=DIRECTION('',(0.,0.,1.));
#408=DIRECTION('',(1.,0.,0.));
#409=DIRECTION('',(0.,0.,1.));
#410=DIRECTION('',(1.,0.,0.));
#411=DIRECTION('',(0.,0.,-1.));
#412=DIRECTION('',(-1.,0.,0.));
#413=DIRECTION('',(0.,0.,1.));
#414=DIRECTION('',(1.,0.,0.));
#415=DIRECTION('',(0.,0.,1.));
#416=DIRECTION('',(1.,0.,0.));
#417=DIRECTION('',(1.,2.9738116731031E-16,0.));
#418=DIRECTION('',(-2.9738116731031E-16,1.,0.));
#419=DIRECTION('',(2.9738116731031E-16,-1.,0.));
#420=DIRECTION('',(2.9738116731031E-16,-1.,0.));
#421=DIRECTION('',(0.,0.,-1.));
#422=DIRECTION('',(-1.,0.,0.));
#423=DIRECTION('',(0.,0.,1.));
#424=DIRECTION('',(1.,0.,0.));
#425=DIRECTION('',(0.,0.,1.));
#426=DIRECTION('',(1.,0.,0.));
#427=DIRECTION('',(0.,0.,1.));
#428=DIRECTION('',(1.,0.,0.));
#429=DIRECTION('',(0.,0.,1.));
#430=DIRECTION('',(1.,0.,0.));
#431=CARTESIAN_POINT('',(0.,0.,0.));
#432=CARTESIAN_POINT('',(29.75,-35.5,3.));
#433=CARTESIAN_POINT('',(29.75,-35.5,0.));
#434=CARTESIAN_POINT('',(34.,-35.5,0.));
#435=CARTESIAN_POINT('',(25.5,-35.5,0.));
#436=CARTESIAN_POINT('',(25.5,-35.5,3.));
#437=CARTESIAN_POINT('',(25.5,-35.5,3.));
#438=CARTESIAN_POINT('',(29.75,-35.5,3.));
#439=CARTESIAN_POINT('',(34.,-35.5,3.));
#440=CARTESIAN_POINT('',(34.,-35.5,3.));
#441=CARTESIAN_POINT('',(-5.,-5.,3.));
#442=CARTESIAN_POINT('',(-5.,-5.,0.));
#443=CARTESIAN_POINT('',(-35.5,25.5,0.));
#444=CARTESIAN_POINT('',(-35.5,25.5,3.));
#445=CARTESIAN_POINT('',(-35.5,25.5,3.));
#446=CARTESIAN_POINT('',(-5.,-5.,3.));
#447=CARTESIAN_POINT('',(-35.5,29.75,3.));
#448=CARTESIAN_POINT('',(-35.5,29.75,0.));
#449=CARTESIAN_POINT('',(-35.5,34.,0.));
#450=CARTESIAN_POINT('',(-35.5,34.,3.));
#451=CARTESIAN_POINT('',(-35.5,34.,3.));
#452=CARTESIAN_POINT('',(-35.5,29.75,3.));
#453=CARTESIAN_POINT('',(-35.5,35.5,3.));
#454=CARTESIAN_POINT('',(-35.5,35.5,0.));
#455=CARTESIAN_POINT('',(-34.,35.5,0.));
#456=CARTESIAN_POINT('',(-34.,35.5,3.));
#457=CARTESIAN_POINT('',(-34.,35.5,3.));
#458=CARTESIAN_POINT('',(-35.5,35.5,3.));
#459=CARTESIAN_POINT('',(-29.7369799014374,35.5,3.));
#460=CARTESIAN_POINT('',(-29.7369799014374,35.5,0.));
#461=CARTESIAN_POINT('',(-25.4739598028747,35.5,0.));
#462=CARTESIAN_POINT('',(-25.4739598028747,35.5,3.));
#463=CARTESIAN_POINT('',(-25.4739598028747,35.5,3.));
#464=CARTESIAN_POINT('',(-29.7369799014374,35.5,3.));
#465=CARTESIAN_POINT('',(5.01302009856262,5.00089486635158,3.));
#466=CARTESIAN_POINT('',(5.01302009856262,5.00089486635158,0.));
#467=CARTESIAN_POINT('',(35.5,-25.4982102672968,0.));
#468=CARTESIAN_POINT('',(35.5,-25.4982102672968,3.));
#469=CARTESIAN_POINT('',(35.5,-25.4982102672968,3.));
#470=CARTESIAN_POINT('',(5.01302009856262,5.00089486635158,3.));
#471=CARTESIAN_POINT('',(35.5,-29.7491051336484,3.));
#472=CARTESIAN_POINT('',(35.5,-29.7491051336484,0.));
#473=CARTESIAN_POINT('',(35.5,-34.,0.));
#474=CARTESIAN_POINT('',(35.5,-34.,3.));
#475=CARTESIAN_POINT('',(35.5,-34.,3.));
#476=CARTESIAN_POINT('',(35.5,-29.7491051336484,3.));
#477=CARTESIAN_POINT('',(-5.,-40.,3.));
#478=CARTESIAN_POINT('',(-5.,-40.,0.));
#479=CARTESIAN_POINT('',(40.,-40.,0.));
#480=CARTESIAN_POINT('',(-40.,-40.,0.));
#481=CARTESIAN_POINT('',(40.,-40.,3.));
#482=CARTESIAN_POINT('',(40.,-40.,3.));
#483=CARTESIAN_POINT('',(-5.,-40.,3.));
#484=CARTESIAN_POINT('',(-40.,-40.,3.));
#485=CARTESIAN_POINT('',(-40.,-40.,3.));
#486=CARTESIAN_POINT('',(40.,5.,3.));
#487=CARTESIAN_POINT('',(40.,5.,0.));
#488=CARTESIAN_POINT('',(40.,40.,0.));
#489=CARTESIAN_POINT('',(40.,40.,3.));
#490=CARTESIAN_POINT('',(40.,40.,3.));
#491=CARTESIAN_POINT('',(40.,5.,3.));
#492=CARTESIAN_POINT('',(5.01391460915087,40.,3.));
#493=CARTESIAN_POINT('',(5.01391460915087,40.,0.));
#494=CARTESIAN_POINT('',(-40.,40.,0.));
#495=CARTESIAN_POINT('',(-40.,40.,3.));
#496=CARTESIAN_POINT('',(-40.,40.,3.));
#497=CARTESIAN_POINT('',(5.01391460915087,40.,3.));
#498=CARTESIAN_POINT('',(-35.5,-35.5,3.));
#499=CARTESIAN_POINT('',(-35.5,-35.5,3.));
#500=CARTESIAN_POINT('',(-34.,-35.5,3.));
#501=CARTESIAN_POINT('',(-35.5,-35.5,0.));
#502=CARTESIAN_POINT('',(-34.,-35.5,0.));
#503=CARTESIAN_POINT('',(35.5,-35.5,3.));
#504=CARTESIAN_POINT('',(35.5,-35.5,0.));
#505=CARTESIAN_POINT('',(35.5,-35.5,3.));
#506=CARTESIAN_POINT('',(-40.,-5.,3.));
#507=CARTESIAN_POINT('',(-40.,-5.,0.));
#508=CARTESIAN_POINT('',(-40.,-5.,3.));
#509=CARTESIAN_POINT('',(35.5,35.5,3.));
#510=CARTESIAN_POINT('',(35.5,35.5,3.));
#511=CARTESIAN_POINT('',(37.,35.5,3.));
#512=CARTESIAN_POINT('',(35.5,35.5,0.));
#513=CARTESIAN_POINT('',(37.,35.5,0.));
#514=CARTESIAN_POINT('',(-1.38777878078145E-14,0.0139201432466651,3.));
#515=CARTESIAN_POINT('',(-1.38777878078145E-14,0.0139201432466651,0.));
#516=MECHANICAL_DESIGN_GEOMETRIC_PRESENTATION_REPRESENTATION('',(#313),
#517);
#517=(
GEOMETRIC_REPRESENTATION_CONTEXT(3)
GLOBAL_UNCERTAINTY_ASSIGNED_CONTEXT((#518))
GLOBAL_UNIT_ASSIGNED_CONTEXT((#521,#520,#519))
REPRESENTATION_CONTEXT('Part 1','TOP_LEVEL_ASSEMBLY_PART')
);
#518=UNCERTAINTY_MEASURE_WITH_UNIT(LENGTH_MEASURE(1.E-5),#521,
'DISTANCE_ACCURACY_VALUE','Maximum Tolerance applied to model');
#519=(
NAMED_UNIT(*)
SI_UNIT($,.STERADIAN.)
SOLID_ANGLE_UNIT()
);
#520=(
NAMED_UNIT(*)
PLANE_ANGLE_UNIT()
SI_UNIT($,.RADIAN.)
);
#521=(
LENGTH_UNIT()
NAMED_UNIT(*)
SI_UNIT(.MILLI.,.METRE.)
);
#522=PRODUCT_DEFINITION_SHAPE('','',#523);
#523=PRODUCT_DEFINITION('','',#525,#524);
#524=PRODUCT_DEFINITION_CONTEXT('',#531,'design');
#525=PRODUCT_DEFINITION_FORMATION_WITH_SPECIFIED_SOURCE('','',#527,
 .NOT_KNOWN.);
#526=PRODUCT_RELATED_PRODUCT_CATEGORY('','',(#527));
#527=PRODUCT('Part 1','Part 1','Part 1',(#529));
#528=PRODUCT_CATEGORY('','');
#529=PRODUCT_CONTEXT('',#531,'mechanical');
#530=APPLICATION_PROTOCOL_DEFINITION('international standard',
'ap242_managed_model_based_3d_engineering',2020,#531);
#531=APPLICATION_CONTEXT('managed model based 3d engineering');
ENDSEC;
END-ISO-10303-21;
